<?xml version="1.0" encoding="UTF-8"?>
<svg width="968.834303px" height="417.23594px" viewBox="0 0 968.834303 417.23594" version="1.1" xmlns="http://www.w3.org/2000/svg" xmlns:xlink="http://www.w3.org/1999/xlink">
    <title>LOGO_2025 copy</title>
    <g id="Page-1" stroke="none" stroke-width="1" fill="none" fill-rule="evenodd">
        <g id="klopvaart_logo_text" transform="translate(0.000000, -0.000000)" fill="#000000" fill-rule="nonzero">
            <g id="Group" transform="translate(396.377128, 280.456080)">
                <polygon id="Path" points="58.0703159 1.6559898 29.4822997 32.4494416 60.4609408 64.9019442 60.4609408 65.6365792 45.4774471 65.6365792 18.5423597 37.1388619 18.5423597 65.6365792 6.40863774 65.6365792 6.40863774 1.2886722 18.5423597 1.2886722 18.5423597 28.4977172 42.9949929 1.2886722 58.070316 1.2886722 58.070316 1.6559897"></polygon>
                <polygon id="Path" points="79.2385183 1.2886723 79.2385183 54.4211511 112.332296 54.4211511 112.332296 65.6365793 67.1047964 65.6365793 67.1047964 1.2886723 79.2385184 1.2886723"></polygon>
                <path d="M182.024673,33.8299433 C181.841014,50.4694268 171.63724,67.1058493 149.024255,67.1058493 C126.40974,67.1058493 115.930477,50.8367443 115.930477,33.9217727 C115.930477,17.0068011 126.777057,0 149.024255,0 C171.178093,0 182.208332,17.006801 182.024673,33.8299433 L182.024673,33.8299433 Z M127.880541,34.1054314 C128.156029,44.6780539 133.855572,55.9822505 149.024255,55.9822505 C164.191408,55.9822505 169.890951,44.5862245 170.07461,34.013602 C170.258269,23.1654913 164.191408,11.0317694 149.024255,11.0317694 C133.855572,11.0317694 127.605052,23.2573207 127.880541,34.1054314 L127.880541,34.1054314 Z" id="Shape"></path>
                <path d="M222.406642,46.6983003 L204.204529,46.6983003 L204.204529,65.6365793 L192.070807,65.6365793 L192.070807,1.2886723 C202.182752,1.2886723 212.294697,1.1968429 222.406642,1.1968429 C253.84443,1.1968429 253.93626,46.6983003 222.406642,46.6983003 L222.406642,46.6983003 Z M204.204529,35.5777625 L222.406642,35.5777625 C237.941112,35.5777625 237.849283,12.7795886 222.406642,12.7795886 L204.204529,12.7795886 L204.204529,35.5777625 Z" id="Shape"></path>
                <polygon id="Path" points="287.34991 65.9120674 274.75551 65.9120674 248.005612 1.2886723 261.610135 1.2886723 281.007561 51.3877206 300.495285 1.2886723 314.099808 1.2886723"></polygon>
                <path d="M360.400181,53.5028573 L326.755427,53.5028573 L321.241073,65.6365793 L308.095697,65.6365793 L336.959202,1.2886723 L350.196407,1.2886723 L379.061441,65.6365793 L365.824236,65.6365793 L360.400181,53.5028573 L360.400181,53.5028573 Z M343.578569,14.799835 L331.628506,42.1955998 L355.528632,42.1955998 L343.578569,14.799835 L343.578569,14.799835 Z" id="Shape"></path>
                <path d="M434.296813,53.5028573 L400.652059,53.5028573 L395.136174,65.6365793 L381.992329,65.6365793 L410.855833,1.2886723 L424.093038,1.2886723 L452.958073,65.6365793 L439.720868,65.6365793 L434.296813,53.5028573 L434.296813,53.5028573 Z M417.475201,14.799835 L405.525138,42.1955998 L429.425264,42.1955998 L417.475201,14.799835 L417.475201,14.799835 Z" id="Shape"></path>
                <path d="M515.925478,65.6365794 L501.492961,65.6365794 L482.739871,44.1240167 L471.065296,44.1240167 L471.065296,65.6365794 L458.931574,65.6365794 L458.931574,1.196843 C469.135349,1.196843 479.339123,1.2886724 489.542898,1.2886724 C504.71005,1.3805018 512.708389,11.4909164 512.708389,22.6145152 C512.708389,31.4393185 508.663305,40.3559513 496.437754,42.8384055 L515.925478,64.807054 L515.925478,65.6365794 L515.925478,65.6365794 Z M471.065296,12.5959299 L471.065296,33.1871377 L489.542898,33.1871377 C497.264218,33.1871377 500.573137,28.0385705 500.573137,22.8900033 C500.573137,17.7414361 497.172389,12.5959299 489.542898,12.5959299 L471.065296,12.5959299 Z" id="Shape"></path>
                <polygon id="Path" points="537.909432 12.3204417 517.501883 12.3204417 517.501883 1.2886723 570.450703 1.2886723 570.450703 12.3204417 550.044684 12.3204417 550.044684 65.6365792 537.909432 65.6365792"></polygon>
                <path d="M48.8077926,128.812131 C43.2903774,134.251491 36.1644176,136.77986 28.4262619,136.77986 C8.50540864,136.77986 0.0770021435,123.063612 0,109.11779 C-0.0760468565,95.098505 9.04108004,80.8465853 28.4262619,80.8465853 C35.7052707,80.8465853 42.6016571,83.6045277 48.1175418,89.0438879 L41.3757349,95.5576519 C37.8510172,92.1109892 33.1003773,90.5009141 28.4262619,90.5009141 C15.4767889,90.5009141 9.88437984,100.155243 9.96090424,109.11779 C10.0374287,118.006874 15.170691,127.27858 28.4262619,127.27858 C33.1003773,127.27858 38.3866886,125.362407 41.9114062,121.83922 L48.8077926,128.812131 Z" id="Path"></path>
                <path d="M59.2304271,119.999572 C59.842623,124.673687 63.9045425,128.043825 70.4933005,128.043825 C73.9414937,128.043825 78.4625601,126.742909 80.6067761,124.520638 L86.5833382,130.419145 C82.5994736,134.557589 76.0872402,136.550287 70.3402515,136.550287 C57.3142541,136.550287 49.5760984,128.502972 49.5760984,116.396799 C49.5760984,104.905883 57.3907786,96.6289946 69.6500007,96.6289946 C82.2933757,96.6289946 90.1845804,104.446736 88.7290847,119.999572 L59.2304271,119.999572 L59.2304271,119.999572 Z M79.7650068,112.261416 C79.1512804,107.357727 75.3204648,104.905883 69.9576291,104.905883 C64.9008913,104.905883 60.7624473,107.357727 59.3834761,112.261416 L79.7650068,112.261416 L79.7650068,112.261416 Z" id="Shape"></path>
                <path d="M122.704425,135.552408 L122.704425,115.784603 C122.704425,110.039145 119.56386,105.671128 113.587298,105.671128 C107.840309,105.671128 103.932969,110.498292 103.932969,116.24375 L103.932969,135.552408 L94.6612626,135.552408 L94.6612626,97.7033985 L103.013145,97.7033985 L103.626871,102.836661 C107.457687,99.0808392 111.288502,97.1677271 116.039142,97.1677271 C124.926696,97.1677271 132.052655,103.831479 132.052655,115.708079 L132.052655,135.552408 L122.704425,135.552408 L122.704425,135.552408 Z" id="Path"></path>
                <path d="M151.724039,87.1307758 L151.724039,97.8564474 L162.145143,97.8564474 L162.145143,105.900701 L151.647514,105.900701 L151.647514,122.221843 C151.647514,125.821554 153.640212,127.584678 156.551203,127.584678 C158.006699,127.584678 159.693298,127.125531 161.07227,126.436811 L163.677163,134.40454 C160.995745,135.475883 158.773474,135.93503 155.939007,136.011554 C147.740174,136.320713 142.377338,131.646598 142.377338,122.221843 L142.377338,105.900701 L135.327903,105.900701 L135.327903,97.8564473 L142.377338,97.8564473 L142.377338,88.1255941 L151.724039,87.1307758 L151.724039,87.1307758 Z" id="Path"></path>
                <path d="M176.738362,97.7799229 L177.427082,102.14794 C180.338073,97.473825 184.246944,96.7820437 188.077759,96.7820437 C191.9851,96.7820437 195.739391,98.3155943 197.808613,100.384816 L193.593644,108.505594 C191.679002,106.89858 189.915878,106.05375 186.851837,106.05375 C181.948148,106.05375 177.427082,108.658643 177.427082,115.631554 L177.427082,135.552407 L168.078851,135.552407 L168.078851,97.7799229 L176.738362,97.7799229 L176.738362,97.7799229 Z" id="Path"></path>
                <path d="M229.739218,97.7799229 L238.703296,97.7799229 L238.703296,135.552407 L229.892267,135.552407 L229.43312,130.036523 C227.287374,134.481065 221.387336,136.626811 217.173898,136.703336 C205.987549,136.77986 197.712192,129.883474 197.712192,116.629433 C197.712192,103.601905 206.370172,96.7820436 217.403472,96.8585681 C222.46021,96.8585681 227.287374,99.233888 229.433121,102.98971 L229.739218,97.7799228 L229.739218,97.7799229 Z M207.058892,116.629433 C207.058892,123.828857 212.040636,128.12035 218.246772,128.12035 C232.957838,128.12035 232.957838,105.211981 218.246772,105.211981 C212.040636,105.211981 207.058892,109.426949 207.058892,116.629433 L207.058892,116.629433 Z" id="Shape"></path>
                <path d="M276.403848,97.7799229 L285.367926,97.7799229 L285.367926,135.552407 L276.556897,135.552407 L276.09775,130.036523 C273.952003,134.481065 268.051966,136.626811 263.838528,136.703336 C252.652179,136.77986 244.376821,129.883474 244.376821,116.629433 C244.376821,103.601905 253.034801,96.7820436 264.068101,96.8585681 C269.124839,96.8585681 273.952004,99.233888 276.09775,102.98971 L276.403848,97.7799228 L276.403848,97.7799229 Z M253.723522,116.629433 C253.723522,123.828857 258.705266,128.12035 264.911401,128.12035 C279.622468,128.12035 279.622468,105.211981 264.911401,105.211981 C258.705266,105.211981 253.723522,109.426949 253.723522,116.629433 L253.723522,116.629433 Z" id="Shape"></path>
                <polygon id="Path" points="302.174233 81.9944527 302.174233 135.552408 292.902526 135.552408 292.902526 81.9944527"></polygon>
                <polygon id="Path" points="384.461009 135.552408 375.879553 135.552408 369.214271 118.695595 363.543807 101.762257 357.951398 118.848644 351.437634 135.552408 342.856178 135.552408 323.164898 81.9179283 334.505826 81.9179283 347.147671 120.611768 360.173668 81.9179283 366.762426 81.9179283 380.171046 120.611768 392.430268 81.9179283 403.769666 81.9179283 384.461009 135.552408"></polygon>
                <path d="M441.626328,116.705958 C441.626328,127.584678 434.19427,136.397238 421.935048,136.397238 C409.675826,136.397238 402.320293,127.584678 402.320293,116.705958 C402.320293,105.900701 409.828875,97.0146781 421.858523,97.0146781 C433.888172,97.0146781 441.626328,105.900701 441.626328,116.705958 Z M411.668523,116.705958 C411.668523,122.451416 415.115186,127.814252 421.935048,127.814252 C428.75491,127.814252 432.201573,122.451416 432.201573,116.705958 C432.201573,111.033963 428.217708,105.518079 421.935048,105.518079 C415.193241,105.518079 411.668523,111.033963 411.668523,116.705958 Z" id="Shape"></path>
                <path d="M475.257307,135.552408 L475.257307,115.784603 C475.257307,110.039145 472.116743,105.671128 466.140181,105.671128 C460.393192,105.671128 456.485852,110.498292 456.485852,116.24375 L456.485852,135.552408 L447.214146,135.552408 L447.214146,97.7033985 L455.566028,97.7033985 L456.179754,102.836661 C460.01057,99.0808392 463.841385,97.1677271 468.592025,97.1677271 C477.479578,97.1677271 484.605538,103.831479 484.605538,115.708079 L484.605538,135.552408 L475.257307,135.552408 L475.257307,135.552408 Z" id="Path"></path>
                <path d="M499.634947,119.999572 C500.247143,124.673687 504.309062,128.043825 510.89782,128.043825 C514.346013,128.043825 518.86708,126.742909 521.011296,124.520638 L526.987858,130.419145 C523.003993,134.557589 516.49176,136.550287 510.744771,136.550287 C497.718774,136.550287 489.980618,128.502972 489.980618,116.396799 C489.980618,104.905883 497.795298,96.6289946 510.05452,96.6289946 C522.697895,96.6289946 530.5891,104.446736 529.133604,119.999572 L499.634947,119.999572 L499.634947,119.999572 Z M520.169526,112.261416 C519.5558,107.357727 515.724984,104.905883 510.362149,104.905883 C505.305411,104.905883 501.166967,107.357727 499.787996,112.261416 L520.169526,112.261416 Z" id="Shape"></path>
                <path d="M563.108944,135.552408 L563.108944,115.784603 C563.108944,110.039145 559.968379,105.671128 553.991817,105.671128 C548.244828,105.671128 544.337488,110.498292 544.337488,116.24375 L544.337488,135.552408 L535.065782,135.552408 L535.065782,97.7033985 L543.417664,97.7033985 L544.03139,102.836661 C547.862206,99.0808392 551.693022,97.1677271 556.443662,97.1677271 C565.331215,97.1677271 572.457175,103.831479 572.457175,115.708079 L572.457175,135.552408 L563.108944,135.552408 L563.108944,135.552408 Z" id="Path"></path>
            </g>
            <g id="Group">
                <path d="M662.882436,118.930167 C658.920956,119.786914 655.967211,121.101173 653.220136,123.247695 C646.062758,128.84044 638.344025,133.642886 630.748941,138.613089 C629.44845,139.464082 628.192378,140.238729 627.592215,141.885073 C625.901763,146.521854 626.1408,147.193231 630.683272,149.163295 C634.064384,150.629712 637.503839,151.990599 640.775225,153.674453 C645.644067,156.180543 648.867085,159.943874 648.144573,165.818361 C647.245991,173.124092 646.042132,180.391781 645.094143,187.692005 C643.488998,200.052844 642.032959,212.432385 641.387909,224.888857 C641.260364,227.351826 640.82562,229.766219 637.838937,229.658832 C634.87849,229.552432 633.885977,227.295041 634.047291,224.541316 C634.901609,209.959311 636.613258,195.469471 638.828073,181.03813 C639.641348,175.739375 640.453479,170.433945 642.201287,165.055143 C639.144727,165.080185 636.574241,165.849689 634.159614,166.784599 C617.940098,173.06471 600.784438,175.686669 584.000191,179.737976 C562.093571,185.025652 540.131517,190.083539 518.192945,195.238721 C516.789223,195.568571 515.230628,195.81179 515.50411,197.801194 C516.291408,203.52725 514.590358,209.052352 514.094984,214.664618 C512.725499,230.181039 510.872901,245.654327 509.337945,261.157201 C509.119534,263.363288 508.459314,264.849408 506.162049,264.689003 C503.605642,264.510544 503.082733,262.625657 503.254594,260.380683 C504.649537,242.16136 506.303829,223.970377 508.939465,205.879611 C509.409277,202.654684 510.202186,199.529026 511.477948,196.244248 C474.640354,176.005116 437.722544,156.162048 399.831288,137.018971 C399.423794,140.606675 398.961904,143.745295 398.727985,146.9008 C397.911099,157.920416 397.442118,168.964437 396.027278,179.939879 C395.507954,183.968327 395.719533,183.995603 403.162343,187.115078 C403.375377,181.409283 403.450865,175.831579 404.337004,170.335961 C405.237144,164.753594 405.135991,159.068048 406.575795,153.509463 C407.316439,150.650168 408.518246,150.359491 410.703863,151.174012 C412.555759,151.864145 414.383497,152.678303 416.108576,153.640696 C441.256969,167.670413 465.87118,182.591594 490.317219,197.807818 C494.664815,200.513928 495.38286,204.223838 495.054308,208.27421 C494.081329,220.268766 493.124768,232.281427 491.004975,244.149841 C490.729987,245.689239 490.356547,247.187101 490.464922,248.768399 C490.642913,251.365044 489.922791,253.534322 486.855944,253.252944 C484.134326,253.003205 483.668721,250.895933 483.986571,248.498528 C484.824108,242.182115 485.632031,235.861701 486.42759,229.539833 C487.382333,221.953347 488.093,214.330299 489.688845,206.839848 C489.935311,205.683085 489.807662,205.054504 488.743558,204.432118 C463.41177,189.616441 438.563977,173.979852 412.891221,159.742621 C412.782743,159.682459 412.611635,159.735191 411.96874,159.735191 C410.735996,169.684481 411.338211,179.969414 408.142832,190.189406 C410.276444,191.516822 412.520483,193.300816 415.06185,194.392858 C418.035908,195.670802 418.960493,197.734486 419.011303,200.710622 C419.113728,206.707498 417.801418,212.547007 417.041083,218.430975 C415.093515,233.502249 414.479169,248.646283 413.945039,263.801357 C413.86394,266.102674 413.640255,268.333257 412.751597,270.434529 C412.078855,272.025153 410.753218,272.852637 408.984343,272.511408 C407.223755,272.171791 406.851926,270.787239 406.971834,269.262076 C407.960944,256.68258 407.560047,244.032401 408.936572,231.47153 C409.92415,222.459501 410.806159,213.436224 412.757753,204.560793 C412.932497,203.766182 413.167274,202.878965 412.264821,201.856774 C403.582929,204.321107 394.77809,206.942326 385.90727,209.316975 C349.434855,219.080337 313.874425,231.631311 278.353376,244.313623 C273.549891,246.028649 268.666996,247.532667 263.778905,248.993953 C261.602873,249.644485 260.688965,250.613775 260.603866,253.124593 C259.830335,275.938239 258.874085,298.74578 257.941708,321.553866 C257.866584,323.391605 257.461115,325.217057 257.406617,327.054069 C257.340974,329.267196 256.484526,330.614341 254.138945,330.548914 C251.734059,330.476873 251.092412,328.906381 251.114206,326.796511 C251.221152,316.442532 251.064747,306.078786 251.468163,295.73673 C251.943067,283.561352 251.98863,271.348593 253.654508,259.240675 C253.885985,257.558224 253.863463,255.777036 254.438818,254.218909 C255.638988,250.968563 254.404607,249.01528 251.451902,248.020767 C229.217976,240.532031 210.137335,226.825488 189.315094,216.551128 C162.716337,203.426461 136.775516,189.097429 111.906448,172.886874 C111.568766,172.666761 111.139996,172.586429 110.713695,172.425751 C109.492198,173.440266 110.066748,174.806075 110.015055,175.974086 C109.04205,197.956261 110.943873,219.939019 110.024783,241.922972 C109.995196,242.630834 109.986312,243.344567 110.040616,244.049961 C110.199293,246.111306 109.161334,247.267264 107.248978,247.674992 C105.31106,248.08815 103.924826,247.195465 103.069021,245.520729 C102.204995,243.829913 102.219802,241.968847 102.221289,240.111392 C102.227432,232.451028 102.213164,224.790587 102.164673,217.130431 C102.156854,215.895972 102.447129,214.602923 101.648128,213.214306 C99.1648583,214.071455 96.6644827,215.29629 93.9365393,214.963725 C91.0600423,214.613054 90.6356695,216.166077 90.6729653,218.483967 C90.7482649,223.16331 90.7130666,227.844757 90.6907268,232.525165 C90.6853626,233.647925 90.7363157,234.823755 90.4294284,235.878612 C90.064977,237.131307 89.1730971,238.13925 87.758023,238.338308 C86.2897164,238.544874 85.3556765,237.637382 84.6452041,236.52226 C83.7023712,235.042426 83.3619676,233.358806 83.4237984,231.636169 C83.6169927,226.253224 83.312781,220.857941 83.968248,215.484308 C84.4938971,211.174924 83.007751,209.97139 79.005546,211.43691 C75.9949904,212.539305 73.7481982,211.861342 72.1879799,209.036687 C71.5851739,207.945333 71.2132932,206.654323 69.7176332,206.19385 C68.5676955,207.011813 69.0523016,208.235505 69.0536524,209.249812 C69.0594971,213.646673 69.1053458,218.045248 69.2505224,222.439447 C69.3296795,224.835552 68.9865874,226.760495 66.0212245,226.815643 C63.1829326,226.86848 62.4424378,225.028454 62.3263419,222.652585 C62.2848054,221.802501 62.2215264,220.951456 62.2290206,220.101373 C62.2765188,214.71257 62.1616114,209.313247 62.4813636,203.94007 C62.6251115,201.524417 61.9389467,200.395552 59.6351878,200.320948 C57.2656238,200.244239 54.9729439,199.895269 52.5488421,200.896822 C46.6445411,203.336309 41.7314642,201.56107 39.3892762,195.49207 C36.807477,188.802179 30.7782872,186.582467 25.3416133,184.563217 C19.2514694,182.30128 15.323408,179.001436 13.5317498,172.98639 C12.9443528,171.014352 12.2806577,169.784348 9.94785385,169.054848 C3.30411085,166.97728 -2.26794535,152.576228 0.926007448,146.454769 C1.44086815,145.467984 2.09222835,144.209756 2.99701045,143.828861 C6.76811605,142.241303 7.59186905,138.957863 8.64245605,135.522227 C10.0181699,131.023356 12.7952586,127.449238 17.3207487,125.610161 C19.1219013,124.878219 19.9468558,124.012433 19.617916,121.813905 C19.2669984,119.468545 19.7102254,117.030578 18.9284456,114.666501 C18.6334637,113.774491 18.5704153,112.584569 18.9129376,111.737109 C22.3832056,103.151103 26.3528002,94.989021 36.738298,92.9302082 C39.239849,92.4343088 41.704562,91.6783644 44.2262221,91.3790297 C46.7435344,91.0802081 47.6622546,89.8127004 47.5596893,87.4460976 C47.3688102,83.0415542 49.2816897,79.566232 52.2111399,76.4158119 C55.6901376,72.6743921 59.6202316,71.5527689 64.5011333,73.2748148 C69.2662184,74.9559996 74.8777894,72.0562859 77.0917797,67.3520182 C79.074494,63.1391755 82.2642231,59.8323179 86.4842416,57.8581108 C90.2792249,56.0827415 93.970763,57.0140278 97.2914919,59.433441 C99.8379824,61.2887663 101.892132,63.6557782 103.831076,66.0964467 C105.217401,67.8415144 106.466368,68.4916627 108.870656,67.6886422 C113.935024,65.9971902 118.962881,67.1760723 123.820372,68.9927834 C126.046863,69.8255016 127.173519,71.5349554 127.18065,73.9180014 C127.186598,75.9030472 127.307091,77.9111862 127.058534,79.8686773 C126.535729,83.9860236 127.174221,87.2239134 132.374407,87.6532868 C139.595091,78.3387152 144.993803,66.6649377 158.003471,62.4266509 C157.873095,59.6782833 156.72867,57.2307505 155.730066,54.8266245 C152.955001,48.1457339 154.267844,42.0720005 158.003211,36.2424955 C159.609759,33.735262 161.216111,31.2279019 162.81962,28.7187266 C164.208302,26.5457208 165.035461,24.2349465 165.446657,21.6293202 C166.751344,13.3617688 171.768265,10.2478701 179.817797,12.7211717 C188.888039,15.508095 195.462308,21.7421608 200.978473,29.1059822 C203.523204,32.5030759 203.295195,35.5311431 201.25124,42.9630815 C203.845145,43.8660047 205.262453,46.0231583 206.400669,48.4898911 C208.578779,53.2102837 211.740882,57.0935161 216.0086,60.1792351 C219.090383,62.4074931 222.188428,64.7417226 224.120462,68.1955427 C225.152226,70.0399513 227.135667,70.1878944 228.861369,70.6922946 C233.513567,72.0520776 238.046116,73.5910017 241.836203,76.8061749 C244.492126,79.0592535 247.088901,81.2745622 246.331164,85.6531031 C252.551723,85.1791864 258.13196,83.6713693 263.778567,82.6541265 C287.516016,78.37781 311.440367,75.4691279 335.387422,72.7129544 C337.499811,72.4698331 339.615448,72.2004235 341.702406,71.801144 C347.499287,70.6920739 352.683433,71.9992804 358.107265,74.387684 C369.121646,79.2379141 380.487412,83.2912152 391.715606,87.6543064 C394.609839,88.7789494 397.531009,89.834222 400.842685,91.0719216 C401.273013,84.8159494 405.014056,80.7161178 409.044192,76.8977684 C411.761161,74.3235413 412.340464,71.7923899 410.096685,68.7045019 C409.602585,68.0244805 409.286606,67.2101277 408.921557,66.4419873 C404.874276,57.9255202 405.645443,53.7437259 413.599627,48.9076531 C417.714187,46.406024 418.865417,43.6273515 418.847649,39.1099626 C418.802372,27.5976587 426.801755,17.6554265 437.800421,14.79917 C440.756971,14.0313819 444.890728,15.4231583 446.317777,18.1602829 C447.263896,19.9750165 448.508226,20.8292206 450.295207,21.5538957 C452.105671,22.288101 453.89021,23.3389592 455.352899,24.628935 C459.263984,28.0781929 463.138547,31.1351038 468.433145,32.6970496 C474.010265,34.3423185 475.601226,39.0541291 474.01146,46.0637241 C473.52362,48.2145589 473.554687,49.7825929 475.687624,50.5421806 C481.151902,52.4881219 483.454414,56.2811377 482.806921,61.9786588 C482.776269,62.2483477 482.856848,62.5515982 482.959923,62.8095782 C483.05957,63.0592456 483.255173,63.2705911 483.495976,63.6286522 C487.541984,63.1038603 491.325005,62.5665153 492.951866,57.6294066 C493.95503,54.5850878 496.141219,51.8571119 498.825275,49.9406767 C500.820328,48.5161438 501.521903,46.9056348 501.347652,44.5779384 C501.199846,42.6032767 501.30344,40.6079832 501.331651,38.6223269 C501.405528,33.4292482 503.46438,29.6268776 508.677567,27.904744 C510.14062,27.4214627 511.519717,26.6354569 512.870083,25.869729 C516.070294,24.0549873 517.729574,21.5672898 517.487992,17.5786396 C517.242565,13.5268955 517.106552,9.35181535 519.266088,5.53936265 C521.327798,1.89959775 524.074509,-0.0437531491 528.496918,0.000747565163 C542.279571,0.142621251 549.195263,5.77171665 550.139408,19.5675218 C550.622832,26.6320053 552.189272,32.1987279 557.977997,36.7685018 C562.507169,40.343902 563.398633,45.9665684 562.750725,51.5567836 C562.329541,55.1911279 563.35281,57.8919778 566.400383,59.9091242 C570.043546,62.3205366 570.372929,66.2003141 570.465561,70.324778 C573.27711,69.5334535 575.253928,67.906313 577.418868,66.6403379 C578.956733,65.7410677 578.916989,64.4079301 578.598568,62.9343372 C578.030253,60.3043189 577.396736,57.6836392 576.95716,55.0314304 C575.538112,46.4704199 578.401666,40.1620368 585.792314,35.5656985 C588.945143,33.604944 591.59756,31.1069615 594.330815,28.6133884 C601.214245,22.3336282 608.782054,17.088934 618.504983,16.3553992 C620.478372,16.2065209 621.472703,15.3364127 622.422043,13.7166171 C625.22554,8.93322395 629.507935,6.29445965 634.912102,4.96346955 C648.060147,1.72522545 659.801924,3.66274025 669.941207,13.2167611 C673.699446,16.7579907 675.904026,20.6270789 675.361479,25.9387488 C674.987001,29.6050151 675.083686,33.2872277 675.884804,36.9448665 C676.308793,38.8806055 677.251639,39.7584743 679.183206,40.2214971 C693.649199,43.6890523 698.656496,50.3995886 697.897201,65.32754 C697.815842,66.926327 698.343842,67.9968479 699.195666,69.177899 C701.849797,72.8579816 704.541542,76.5195688 707.007498,80.3251767 C713.714235,90.6751228 712.904649,96.1014939 703.455929,103.79301 C705.955915,107.317941 708.525829,110.853451 710.291561,114.882535 C713.451716,122.093127 712.283601,126.184776 705.493947,130.26519 C703.09049,131.709644 700.794472,133.53907 697.833766,133.763066 C696.829252,133.839061 696.355023,134.422638 695.847908,135.126863 C693.39016,138.540237 689.82633,139.280115 686.006266,138.774806 C679.561061,137.922229 673.733631,135.403656 668.511716,131.524963 C664.466123,128.520057 662.569054,124.445228 662.882435,118.930167 L662.882436,118.930167 Z M404.612537,196.966462 C403.411588,196.094156 402.996534,195.704182 402.510097,195.452028 C373.552212,180.442357 344.725016,165.170843 314.995835,151.703623 C313.967422,151.237746 312.783747,150.889673 312.007801,150.139703 C310.554021,148.73463 310.099587,147.363612 312.690621,146.403076 C314.984015,145.552888 317.391576,145.532561 319.701258,144.977884 C341.482048,139.747304 363.482755,135.542307 385.357996,130.758083 C393.105484,129.063683 400.581466,127.26522 407.160476,133.58553 C442.536264,150.699108 477.102258,169.352553 511.409525,188.493421 C513.550619,189.68798 515.486705,190.021987 517.856289,189.39125 C524.979898,187.495076 532.171254,185.854162 539.300266,183.977419 C566.587155,176.79405 594.31866,171.494685 621.647267,164.493841 C626.788552,163.176777 631.887598,161.694982 637.515112,160.149427 C631.478208,155.918764 625.03799,153.897709 619.287867,150.580304 C593.158494,135.505576 565.36823,124.116378 537.20484,113.55695 C527.763358,110.017018 518.053174,109.248458 508.074289,111.251269 C507.518026,111.362046 506.964881,111.488266 506.408515,111.598472 C492.099368,114.43279 477.671665,116.620109 463.470061,120.096749 C460.149683,120.909621 456.008653,122.023471 452.303405,120.058265 C446.035101,116.733665 439.455286,114.0836 433.017173,111.127218 C405.802186,98.6301194 377.477039,88.879427 349.910824,77.2599016 C348.358126,76.6054217 346.775061,76.1102042 344.967299,76.3529553 C338.368521,77.2390489 331.745169,77.9406828 325.14252,78.7996049 C287.856232,83.6501077 250.908004,90.3911665 214.237037,98.6788514 C212.295976,99.1175309 210.270271,99.2653441 207.824537,100.476587 C232.441514,110.331997 256.417377,119.761456 280.26559,130.744302 C274.557263,134.002428 269.577813,137.138152 263.371696,138.377118 C218.048282,147.42528 172.569942,155.730655 127.54944,166.25504 C125.048805,166.839604 122.547936,167.42309 120.047171,168.007083 C131.021236,175.099325 141.849326,181.549375 152.936896,187.517338 C170.293913,196.859893 187.795244,205.936474 205.293275,215.014236 C222.535969,223.959518 239.17176,234.038042 256.709769,242.438426 C259.138501,243.601787 261.024765,243.571472 263.466615,242.619976 C301.14159,227.939468 339.21915,214.44996 378.363802,204.148116 C386.837933,201.917949 395.269853,199.527428 404.612537,196.966462 L404.612537,196.966462 Z M178.370967,147.845412 C177.78865,146.970794 177.531118,146.485486 177.182824,146.077693 C175.558093,144.175298 174.504223,141.439445 170.982293,143.975642 C169.279411,145.201893 167.346117,143.473034 167.0331,141.400584 C165.783808,133.129018 161.405404,128.513746 152.775426,127.90966 C149.241195,127.662285 148.011724,125.427663 148.645215,121.887913 C148.99734,119.920407 149.164681,117.979217 149.11895,115.979293 C149.070114,113.844356 148.320754,112.51238 146.106602,112.068129 C137.485027,110.338219 134.804608,102.810842 131.43403,96.3082161 C129.657362,92.8806129 128.526173,90.6675707 124.695641,90.630606 C121.512756,90.5998887 120.815753,88.8796546 120.712756,86.3794738 C120.590289,83.4068764 120.599822,80.4290641 120.519854,77.4543821 C120.484149,76.1266412 120.249866,74.8390276 118.669529,74.496442 C115.786947,73.8715624 113.001297,72.9794812 109.990429,74.5020594 C105.43895,76.8037013 103.878627,76.4009539 100.320161,72.6744641 C98.2661212,70.523428 96.4312591,68.1538379 94.2949907,66.0927911 C91.3079179,63.2108974 89.6215055,63.2916846 86.6541944,66.0902129 C84.5758863,68.0503147 83.262978,70.6583178 81.3841311,72.7230923 C74.7569214,80.006094 70.8678964,83.2895662 62.0891961,80.053761 C60.130075,79.3316316 58.9168194,80.0067953 57.5906761,81.3072673 C54.8830009,83.9625218 54.6998531,87.2800818 54.70599,90.752001 C54.7153221,96.036527 53.8293064,97.064206 48.6180541,98.2188 C45.9912862,98.8007793 43.3483155,99.3092514 40.7184239,99.8775735 C31.1414503,101.947154 26.9509379,107.585558 27.7118438,117.431981 C28.2041746,123.802932 27.1417228,129.303044 20.3761619,132.097696 C18.175418,133.006759 16.9020299,135.024646 16.2717423,137.277101 C15.6256593,139.58599 15.1069282,141.945599 14.7502649,144.31578 C14.4508037,146.30582 13.6225372,147.724933 11.7977605,148.650609 C7.42269185,150.870009 7.42200995,150.908246 9.46110645,155.52231 C10.3655411,157.568823 11.2665833,159.632182 12.7987745,161.30045 C14.1397943,160.77067 14.3362389,159.492778 15.1473868,158.754628 C16.0565865,157.927274 16.6602692,156.450934 18.2120776,156.926994 C19.738916,157.395377 19.5897243,158.89733 19.7303826,160.132841 C20.06694,163.08908 20.261839,166.065477 20.7076702,169.004337 C21.430751,173.770792 23.6238594,176.144649 27.7325862,176.950573 C34.4333064,178.264871 38.9527927,182.63743 42.7586862,187.891168 C43.7381234,189.243223 44.2053219,190.958339 44.9725856,192.473891 C46.2419701,194.981215 48.1394877,195.689843 50.5217608,194.038253 C52.6272664,192.578525 54.862051,192.4309 57.3557311,192.395611 C63.9677185,192.302004 68.8707718,195.946765 73.8504949,199.430588 C76.1343427,201.028394 77.9301101,203.22639 81.303539,202.04313 C82.734303,201.541302 84.2869166,202.687454 85.505374,203.716035 C87.0339333,205.006383 88.6683537,206.128 90.5554677,206.806287 C94.0891786,208.076399 97.8379301,207.796566 100.858746,206.081281 C103.184774,204.760528 101.89214,201.40773 102.16166,198.957697 C102.300252,197.697885 102.21927,196.406784 102.159627,195.133451 C101.727897,185.916415 101.661007,176.74454 103.749186,167.646892 C104.312326,165.193404 105.293013,164.004794 107.712115,163.476027 C115.185732,161.842425 122.603565,159.954227 130.075208,158.311065 C145.981161,154.813046 161.907362,151.40714 178.370967,147.845413 L178.370967,147.845412 Z M667.399608,28.6689526 C667.073653,25.6901662 668.473583,22.1870621 665.338886,19.3905291 C659.594737,14.2661584 652.872518,11.1093522 645.60531,8.92432075 C645.211349,8.80586995 644.637578,8.60997575 644.388359,8.78772775 C641.172874,11.0810953 637.008309,10.7354867 633.683931,12.6823014 C631.82328,13.7719312 629.796743,15.0156103 629.382469,17.1652713 C628.366837,22.4350118 624.710373,23.8213071 620.129248,24.1929281 C612.059416,24.8475574 605.645487,28.9890457 600.073303,34.3733608 C596.767628,37.5675482 593.3289,40.3739962 589.275047,42.5020982 C584.373994,45.0749843 583.301681,47.3839872 584.286505,52.882557 C584.535984,54.2757784 584.877732,55.6535957 585.208258,57.0310038 C587.167654,65.1965035 584.522476,71.5392353 577.272725,76.0591991 C571.527589,79.6406616 571.232131,82.3398425 576.082426,86.805288 C576.98558,87.6368178 578.856725,88.7746829 577.892734,89.7315952 C574.385272,93.2133466 576.265249,97.5826917 575.49255,101.465853 C574.383818,107.037699 577.263061,110.391938 582.962167,110.954383 C585.810862,111.235514 588.615917,110.730283 591.442637,110.643015 C592.624935,110.60653 593.981484,111.960261 594.960956,110.53038 C596.733131,107.943282 599.692642,108.576734 601.52981,109.064054 C607.500942,110.647937 610.920603,107.625926 613.945783,103.423344 C615.210739,101.665976 616.676909,100.308823 618.870579,100.876457 C626.252551,102.786619 631.136096,100.191942 634.295107,93.2973224 C635.871626,89.8564776 639.124569,89.8063169 641.225243,93.0236332 C642.356783,94.7566997 643.774377,95.7114689 645.590555,96.0484176 C651.825817,97.2051807 657.733255,100.077749 664.280132,99.623821 C665.254617,99.5562559 666.361895,99.5357734 666.84854,100.663034 C667.329003,101.77587 666.707955,102.728977 665.85,103.1979 C662.824456,104.851627 663.783616,106.774914 665.049714,109.070977 C667.322249,113.191915 670.860986,116.760902 670.283215,122.167329 C670.087664,123.997029 672.088743,125.242476 673.626921,126.301151 C684.310983,133.655017 693.356236,132.830482 703.305889,124.882622 C705.847905,122.85202 706.200096,120.611462 704.833312,117.780651 C703.222037,114.443258 701.168588,111.419753 699.009051,108.418757 C695.938931,104.152416 696.471971,100.198689 700.140019,97.6439771 C705.706437,93.767096 706.414091,91.2296777 702.838414,85.4227886 C699.795934,80.4817054 696.328112,75.8024207 693.044725,71.0098847 C691.580893,68.8732396 690.367111,66.5521867 690.61472,63.9457032 C690.746992,62.5535988 691.138511,61.2507889 690.765332,59.8089848 C689.195359,53.7425832 685.477384,48.1950216 677.881209,47.6857248 C671.800819,47.2780516 669.30182,44.2421785 668.095052,38.2504563 C667.47416,35.1678026 667.284583,32.0755668 667.399607,28.6689527 L667.399608,28.6689526 Z M456.832266,115.761206 C457.876732,115.761206 458.45123,115.863086 458.977256,115.746477 C476.96931,111.758137 495.159253,108.727177 513.139721,104.739512 C518.74609,103.49613 523.621635,104.107866 528.715642,105.811728 C548.472908,112.420267 568.065742,119.45744 587.040178,128.117187 C588.190161,128.642031 589.476314,129.934768 590.727865,128.121525 C591.7768,126.601869 592.443982,124.86527 591.05782,123.446429 C587.946085,120.261233 585.43893,116.477186 580.712024,115.006574 C570.357396,111.785127 566.638745,105.322271 568.840676,94.8633336 C569.208348,93.1170256 569.038357,92.0332891 567.845357,90.7190755 C565.605293,88.251268 563.800076,85.2492456 564.41967,81.8844472 C565.130181,78.025886 564.562281,74.3131055 564.465804,70.522577 C564.404499,68.1155871 563.772489,66.4533912 561.601159,65.3910206 C555.214713,62.2663043 553.091907,57.1095766 554.380553,50.2819183 C555.146914,46.2212951 554.051014,42.5040985 551.104907,39.7461715 C545.801736,34.7816769 543.249122,29.0718948 543.6502,21.6395473 C543.893601,17.1288912 542.348825,12.6703019 538.811127,9.31072725 C535.38492,6.05699905 530.92204,6.28585925 527.187128,7.33238585 C524.089525,8.20034865 524.568793,12.221774 524.574819,15.1912397 C524.580586,18.0267425 524.610511,20.8622242 524.608952,23.6977042 C524.607965,25.4653423 524.299208,27.2554338 522.682737,28.1869215 C519.142753,30.2268591 516.104013,33.2847571 511.941733,34.0720033 C508.78428,34.6691984 507.760024,36.6988654 507.622088,39.4764762 C507.495582,42.0235448 507.477606,44.5819911 507.551016,47.1314203 C507.635388,50.0624747 506.761328,52.4097509 504.088858,53.9100153 C501.769617,55.2120199 499.793423,57.2363293 499.170816,59.5960548 C497.203662,67.052054 491.938157,69.4757988 485.026049,70.7551064 C479.345387,71.806502 476.587714,79.3830585 479.414849,84.4512256 C481.273161,87.782631 480.742044,90.2746423 477.604333,92.5333838 C475.50527,94.0444544 473.104306,94.9183845 470.615698,95.549453 C467.474922,96.3459079 465.307021,98.0995608 464.582482,101.404743 C464.243747,102.949719 463.706188,104.594751 462.297894,105.364041 C458.257497,107.571128 457.592237,111.431352 456.832266,115.761206 L456.832266,115.761206 Z M195.99944,36.4050508 C196.128842,34.7408352 196.169145,33.3411035 195.363442,32.3363196 C190.536825,26.3170947 185.361927,20.7351677 177.449344,18.7314642 C174.770353,18.0530647 173.069991,18.9543985 173.096007,21.6700112 C173.153077,27.6250577 170.304733,32.4598382 166.844951,36.6972742 C160.860051,44.0274039 160.526655,51.4880172 164.657957,59.5810272 C164.915333,60.0852066 165.142316,60.6064916 165.356805,61.1307185 C167.22895,65.7063891 166.402219,67.6283443 161.485009,68.8312483 C157.03161,69.9206866 153.263617,71.9333974 150.495085,75.5794831 C147.325306,79.7540234 144.074038,83.8912613 141.240994,88.2912003 C136.905308,95.0248233 140.276431,103.157986 148.048883,105.325537 C153.564919,106.863825 155.543009,109.238799 155.932074,114.890302 C156.029291,116.302506 156.053371,117.728347 155.981052,119.141279 C155.902084,120.684002 156.466165,121.508446 158.058451,121.722922 C165.018148,122.660352 168.868773,127.376439 171.824194,133.157423 C172.445515,134.372776 172.63065,135.850129 174.380796,136.262676 C177.186955,136.924157 179.595074,138.957863 180.41131,141.286144 C182.783634,148.053017 187.425701,146.517321 192.203781,145.307981 C192.478613,145.238416 192.749081,145.104493 193.025121,145.09409 C195.874336,144.98669 196.649581,143.57259 196.624241,140.733843 C196.505398,127.417949 196.081889,114.093393 197.300399,100.791104 C197.606416,97.4504254 199.044232,95.7939509 202.343206,95.1358602 C213.039906,93.0020725 223.688966,90.6303718 234.376691,88.4499367 C236.445128,88.0279472 237.777909,86.9559652 238.240214,85.0332437 C238.717144,83.0495487 236.83166,82.4516263 235.657103,81.573436 C232.154889,78.9549383 227.845634,78.3377543 223.834487,76.9845043 C221.536027,76.2090579 218.856777,75.579522 218.105352,73.042331 C216.96324,69.1860558 214.141534,66.8768223 211.271772,64.6255685 C206.948593,61.2341637 203.502865,57.2034297 201.04652,52.2997269 C200.421731,51.0524419 199.785578,49.983681 198.234127,49.3738971 C194.122112,47.7577187 193.324839,45.7268015 194.659399,41.3684218 C195.197932,39.6097164 195.969917,37.9160499 195.99944,36.4050507 L195.99944,36.4050508 Z M470.710929,86.5045248 C468.212086,80.2634762 470.508311,75.4218768 473.988186,70.8015719 C477.704187,65.8677817 476.489107,59.766513 471.263606,56.6541356 C465.737869,53.3629224 464.550115,50.1190678 466.65692,44.0725351 C467.681436,41.1319895 466.844731,39.4881916 463.786456,38.7191452 C462.70131,38.4462742 461.540469,38.3880899 460.413657,38.3843298 C457.762124,38.375475 455.695167,37.5221379 454.764478,34.8258014 C454.275859,33.4103408 453.13263,32.5428627 452.075799,31.6072025 C449.744037,29.5428015 447.308161,27.5857292 445.086748,25.4093789 C442.100741,22.4838754 434.792698,22.2385298 431.730293,25.1003761 C426.000899,30.4546184 424.563615,37.1622031 425.987755,44.5372886 C426.730399,48.3832414 425.593924,50.60809 422.108101,52.3646977 C413.005206,56.9519311 412.944914,57.4356345 417.629531,66.4441241 C420.187808,71.3636792 419.721658,76.0032522 416.150216,80.2317977 C414.233041,82.5017286 412.055139,84.5653861 410.27034,86.9300146 C407.396213,90.7378305 408.398961,94.1597189 412.755727,95.9208985 C424.180226,100.539158 435.406005,105.604227 446.567569,110.818525 C447.6377,111.318445 448.645851,112.309529 449.993984,111.741876 C450.071238,111.539544 450.156753,111.410051 450.167092,111.274778 C450.604173,105.590622 458.231936,92.7708615 462.906162,89.7251854 C465.183788,88.2410979 467.90764,87.8561055 470.710929,86.5045246 L470.710929,86.5045248 Z M327.906869,148.84125 C348.685171,159.082881 368.876116,169.906958 389.737127,180.275601 C390.192938,164.638076 391.857154,149.833101 393.556931,134.687366 C371.230815,139.500787 349.568842,144.171025 327.906869,148.841251 L327.906869,148.84125 Z M203.721523,104.650516 L203.721523,143.004118 C224.337341,139.183652 244.617412,135.425399 264.897483,131.667159 C264.889404,131.334997 264.881325,131.002821 264.873247,130.670646 C244.699784,122.086815 224.526295,113.502971 203.721523,104.650516 L203.721523,104.650516 Z M656.131383,107.323753 C648.334098,112.747559 640.762912,117.972683 633.245082,123.273568 C631.431813,124.552122 629.682966,125.821624 627.477866,124.373066 C625.341033,122.969382 625.500269,120.79083 625.896984,118.631319 C626.477612,115.470528 627.094816,112.316465 627.712539,109.075159 C625.374335,109.075159 623.423026,109.170156 621.484394,109.053443 C618.379622,108.866541 617.264499,111.619591 615.379379,113.150599 C613.73901,114.482834 615.902443,115.594151 616.158364,116.853002 C616.561625,118.836327 616.577418,120.79222 616.17847,122.756894 C615.389925,126.640328 614.630526,130.530892 613.759635,134.396116 C612.282451,140.952488 612.24785,140.950488 618.325954,143.535261 C618.665728,143.679756 619.092055,143.620659 619.611067,143.668599 C619.88273,142.944476 620.263131,142.31131 620.349166,141.640426 C620.955823,136.908506 623.50319,133.697476 627.610087,131.325931 C631.651004,128.992455 635.584741,126.414448 639.306769,123.601367 C645.288707,119.080195 652.495442,116.568714 658.382773,111.953299 C658.004554,110.232728 657.518533,108.802509 656.131383,107.323753 L656.131383,107.323753 Z M596.174479,118.08398 C600.395569,122.694005 600.369592,127.483436 596.679619,132.365527 C599.909755,133.880975 602.650336,135.166737 605.552543,136.528313 C607.030818,131.043176 608.432514,126.038619 609.71503,121.003722 C610.392603,118.343746 609.096528,117.007095 606.459489,116.963363 C604.492647,116.93075 602.521024,117.158136 600.634761,116.328807 C598.883524,115.558823 597.716085,116.615394 596.174479,118.08398 L596.174479,118.08398 Z M649.560504,104.336388 C645.890377,103.252866 643.040071,102.492278 640.250083,101.5524 C638.922368,101.105109 638.279603,101.764785 637.307144,102.456762 C633.076495,105.467077 634.889452,109.625148 634.589838,114.318623 C639.783647,110.855464 644.314326,107.834505 649.560504,104.336388 L649.560504,104.336388 Z" id="Shape"></path>
                <path d="M129.91353,202.412231 C129.91353,215.491218 129.848757,227.952534 129.94491,240.412642 C129.984238,245.507871 130.362171,250.600917 130.605754,255.693989 C130.695594,257.572381 130.220261,259.203451 128.201972,259.627856 C126.423096,260.001945 125.27423,258.854793 124.553029,257.328747 C123.820645,255.77901 123.397838,254.162955 123.399734,252.412705 C123.417086,236.408145 122.006259,220.407377 123.358288,204.396336 C123.622808,201.263781 124.10818,198.209507 125.21125,195.281855 C125.68527,194.02377 126.822694,192.640777 127.96065,194.259859 C129.832444,196.923055 132.771824,197.660699 135.294526,199.102036 C159.16582,212.74061 182.564444,227.153209 205.842796,241.772542 C208.914994,243.701979 208.157504,245.840657 207.879984,248.557521 C206.698452,260.124762 206.791604,271.760607 206.413307,283.370528 C206.237965,288.75207 206.255136,294.13995 206.185311,299.524947 C206.177959,300.09173 206.199922,300.66041 206.161399,301.224985 C206.022139,303.265523 205.263467,304.965119 202.952694,304.938903 C200.653014,304.912282 199.982623,303.245807 199.822127,301.169369 C199.165504,292.67404 199.452103,284.175776 199.676957,275.679123 C199.928007,266.192112 200.236713,256.702166 201.228031,247.260121 C201.437195,245.267977 200.582591,244.551413 199.109706,243.693017 C178.179338,231.494857 157.767657,218.423987 136.637879,206.559146 C134.44656,205.328674 132.353536,203.923159 129.91353,202.412231 L129.91353,202.412231 Z" id="Path"></path>
                <path d="M309.607071,250.595436 C300.013011,256.475806 289.822556,259.618635 280.362041,264.386454 C278.808512,265.169362 278.5309,266.280536 278.505002,267.795386 C278.202479,285.505361 277.781632,303.216063 278.808824,320.916583 C278.894806,322.398365 278.85779,323.728366 277.877564,324.908612 C277.004049,325.960403 275.946543,326.609636 274.541106,326.265628 C273.170686,325.930218 272.329434,325.030805 272.181705,323.597444 C272.03647,322.188318 271.871597,320.774828 271.84562,319.360845 C271.51751,301.502362 271.638171,283.646321 272.421339,265.801502 C272.554521,262.76671 273.796643,260.749863 277.027766,259.052891 C286.828989,253.905268 297.557679,250.806781 307.059574,245.074529 C307.901683,244.566531 308.830008,244.153426 309.769944,243.863813 C314.321067,242.461545 315.276382,243.241882 315.194374,247.905925 C314.880525,265.755004 313.905026,283.591563 314.182118,301.452254 C314.208433,303.147745 314.238254,304.884955 313.91591,306.53426 C313.435603,308.991592 312.050636,310.737011 309.21563,310.36939 C306.310124,309.992626 307.270582,307.679905 307.327574,306.026755 C307.956156,287.795405 307.635942,269.529141 309.607071,250.595436 L309.607071,250.595436 Z" id="Path"></path>
                <path d="M620.481958,189.847087 C612.414516,192.767309 549.730379,208.900894 542.577884,212.302579 C541.275263,212.922107 540.756043,213.697378 540.538151,215.149482 C538.544657,228.434256 536.180113,241.663322 534.60853,255.011544 C534.509663,255.85147 534.420044,256.712075 534.161525,257.509659 C533.580585,259.30155 532.444213,260.581936 530.399285,260.092589 C528.416441,259.618101 527.832176,258.097406 528.1161,256.15615 C529.160254,249.017422 530.018832,241.846743 531.26311,234.743395 C532.55612,227.36167 534.282004,220.056692 535.674089,212.690838 C536.104521,210.413692 537.165456,208.781531 539.077956,207.594947 C547.953478,202.088081 613.173084,185.802962 623.091929,182.838671 C626.593364,181.792243 626.609989,184.352222 626.321025,186.493952 C625.659818,191.395785 624.61478,196.244976 623.914399,201.142561 C622.613336,210.240235 621.427921,219.354702 620.253624,228.469832 C620.13143,229.418133 620.400703,230.418673 620.5017,231.3936 C620.749205,233.781783 620.195021,235.924331 617.443841,235.98296 C614.691103,236.041589 613.972279,234.010455 614.289142,231.54842 C615.390497,222.991553 616.401713,214.421737 617.627236,205.882663 C618.364971,200.742106 619.436453,195.649437 620.481958,189.847087 L620.481958,189.847087 Z" id="Path"></path>
            </g>
        </g>
    </g>
</svg>
