<svg id="Layer_1" data-name="Layer 1" xmlns="http://www.w3.org/2000/svg" viewBox="0 0 766.18 573.41"><g id="Layer_2" data-name="Layer 2"><path d="M708.68,448.78h-.8a9,9,0,0,0-2.1.2c-.9.1-2,.3-3.3.5a3.55,3.55,0,0,0-1,.2c-.3,0-.7.2-1.1.2-.7.2-1.5.3-2.4.5-6.6,1.5-15.5,4.9-25,9.9s-19.6,11.4-30.5,15.9c-1.4.6-2.7,1.1-4.1,1.6s-2.8.9-4.2,1.3a63.84,63.84,0,0,1-8.9,1.9,76.14,76.14,0,0,1-18.5.5,92.69,92.69,0,0,1-9.2-1.4,68.21,68.21,0,0,1-8.8-2.6,116.32,116.32,0,0,1-16.8-7.8c-10.8-6-21-12.7-30.6-17.6a108.78,108.78,0,0,0-25-9.5,58,58,0,0,0-7.6-1.4c-.9-.1-1.6-.2-2.1-.2h-1.4c-.5,0-1.2-.1-2.1-.1h-3.4a38.6,38.6,0,0,0-4.6.2,52.7,52.7,0,0,0-12.4,2.7c-1.1.4-2.3.9-3.5,1.3s-2.4,1.1-3.6,1.7l-1.8.9a17.39,17.39,0,0,0-1.8,1.1c-.6.4-1.2.7-1.8,1.1a18.76,18.76,0,0,0-1.8,1.2c-9.6,6.4-18.1,15.6-27.2,23.9a80.19,80.19,0,0,1-14.4,10.7,28.1,28.1,0,0,1-3.9,1.9l-1,.4a4.18,4.18,0,0,0-1,.4,15.87,15.87,0,0,1-2,.7,46.31,46.31,0,0,1-8.4,1.7,49.69,49.69,0,0,1-17.5-1.7,77.76,77.76,0,0,1-16.7-6.7,116.11,116.11,0,0,1-14.5-9.3q-3.3-2.55-6.3-5.1c-2-1.7-3.9-3.5-5.8-5.2a115.61,115.61,0,0,0-11.7-9.7,45.52,45.52,0,0,0-11.5-6,39,39,0,0,0-8.4-2,10.63,10.63,0,0,0-2.3-.2h-.8a38.23,38.23,0,0,0-7.6.2,41.65,41.65,0,0,0-7.2,1.3,56,56,0,0,0-12.5,4.8,72,72,0,0,0-17.2,13,69.44,69.44,0,0,0-8.8,10.9c-1.7,2.9-2.3,4.8-1.6,5.6s2.7.4,5.7-1.1a131.35,131.35,0,0,0,11.6-6.7,108.76,108.76,0,0,1,16.4-8.5c6.1-2.4,13.2-4.1,20.1-3.6h.5a5,5,0,0,1,1.5.2,25.05,25.05,0,0,1,5.3,1.2,30,30,0,0,1,7.7,4,98.76,98.76,0,0,1,10,8.3c1.9,1.7,3.9,3.6,6.1,5.5s4.6,3.8,7.1,5.7a122.84,122.84,0,0,0,16.7,10.7,94.72,94.72,0,0,0,20.1,8,67.51,67.51,0,0,0,23,2.1,59.08,59.08,0,0,0,11.7-2.3,23.07,23.07,0,0,0,2.8-1c.5-.2.9-.3,1.4-.5l1.3-.6a42,42,0,0,0,5.2-2.6c6.8-3.7,12.4-8.4,17.4-12.8s9.4-8.9,13.6-12.8a103.9,103.9,0,0,1,11.9-9.7c.5-.3.9-.6,1.4-.9a10,10,0,0,1,1.4-.8c.5-.3.9-.5,1.4-.8a9.14,9.14,0,0,0,1.4-.7c.9-.4,1.7-.9,2.6-1.2s1.7-.6,2.5-.9a41.71,41.71,0,0,1,8.7-1.9c1.2-.1,2.4-.1,3.4-.2h2.5a7.12,7.12,0,0,1,1.6.1h1a5.29,5.29,0,0,1,1.6.2c1.4.2,3.4.5,6,1.1a95.5,95.5,0,0,1,21.3,8.1c4.3,2.2,9,4.9,14,7.9s10.4,6.3,16.2,9.5a134.62,134.62,0,0,0,19.1,8.8,100.47,100.47,0,0,0,10.7,3.1,85.14,85.14,0,0,0,11.1,1.7,92.25,92.25,0,0,0,22.3-.6,76.68,76.68,0,0,0,10.8-2.3c1.8-.5,3.5-1,5.2-1.6s3.3-1.2,5-1.9a190.58,190.58,0,0,0,17.5-8.6c5.3-2.9,10-5.7,14.4-8,8.8-4.7,16.1-7.4,21.2-8.5.6-.1,1.3-.3,1.8-.4a1.88,1.88,0,0,0,.8-.2,2.2,2.2,0,0,0,.8-.1c1-.2,1.9-.3,2.6-.4s1.3-.1,1.6-.2h.6a59.85,59.85,0,0,1,11.2,0c1.8.2,3.6.3,5.3.6a23.36,23.36,0,0,1,2.6.4c.8.2,1.7.3,2.5.5.4,0,.8.2,1.2.2l1.2.3,2.4.6c1.6.4,3,1,4.5,1.4l4.2,1.5c1.3.6,2.6,1.1,3.8,1.6,4.8,2.2,8.6,4.3,11.5,5.7s4.8,2,5.6,1.3.4-2.7-1.3-5.8a43.21,43.21,0,0,0-9.8-10.7c-1.2-.9-2.6-1.9-3.9-2.9s-3-1.8-4.5-2.7-3.3-1.7-5.1-2.5c-.9-.4-1.8-.7-2.8-1.1-.5-.2-.9-.4-1.4-.6s-1-.3-1.5-.5l-3-.9c-1-.3-2.1-.5-3.1-.8a64.52,64.52,0,0,0-6.6-1.2,66.07,66.07,0,0,0-14.1-.3Z"/><path d="M486.28,527.58h-.6c-.4,0-.9.2-1.6.29s-1.6.3-2.6.5-2.2.5-3.5.91c-.6.2-1.3.3-2,.59s-1.4.5-2.2.71-1.6.5-2.4.79-1.6.71-2.5,1.1a20.62,20.62,0,0,0-2.6,1.2c-.9.5-1.8.91-2.7,1.41-.5.2-.9.5-1.4.7s-.9.5-1.4.8c-.9.59-1.9,1.09-2.8,1.7-3.7,2.4-7.4,5.2-11,7.9a109.37,109.37,0,0,1-11.2,7.5,37,37,0,0,1-5.8,2.6,25.51,25.51,0,0,1-5.9,1.3,31.41,31.41,0,0,1-12.7-1.5,62.34,62.34,0,0,1-12.8-6,112.13,112.13,0,0,1-12-8.41c-7.8-6.09-15.6-12.3-23.3-16.8a81.35,81.35,0,0,0-11.2-5.4,49.83,49.83,0,0,0-9.6-2.6c-1.4-.2-2.6-.4-3.7-.5a19.94,19.94,0,0,1-2.8-.2h-4.6a50.7,50.7,0,0,0-6.4.7,72.44,72.44,0,0,0-20.6,7c-7.8,3.8-16,9.1-24.5,14.3s-17.4,10.3-26.4,12.7a37.47,37.47,0,0,1-13.2,1.21,31.82,31.82,0,0,1-3.2-.41,28.06,28.06,0,0,1-3.1-.8,45.69,45.69,0,0,1-6.2-2.2c-8.2-3.59-15.8-9-23-13.4-.9-.5-1.8-1.1-2.7-1.6l-2.7-1.5c-1.7-1-3.4-1.8-5-2.59s-3.1-1.41-4.5-2.1-2.7-1.1-3.9-1.6c-2.4-1-4.3-1.5-5.7-2-.7-.2-1.2-.4-1.5-.5a.88.88,0,0,1-.6-.2,68.33,68.33,0,0,0-21-2.8,46.56,46.56,0,0,0-17.3,3.6,23.87,23.87,0,0,0-3.2,1.6,17,17,0,0,0-2.7,1.7c-.8.59-1.5,1.2-2.2,1.7a13.25,13.25,0,0,0-1.7,1.6c-1.9,2.2-2.5,3.79-1.9,4.7,1.3,2,6.7.2,14.7-.5,1,0,2.1-.1,3.1-.2h3.4a62.4,62.4,0,0,1,7.4.4,95.44,95.44,0,0,1,16.9,3.4,1.75,1.75,0,0,1,.5.1,5.79,5.79,0,0,1,1.3.4c1.1.4,2.8.9,4.8,1.7,1,.4,2.2.8,3.4,1.4s2.5,1.1,3.9,1.8,2.8,1.4,4.3,2.2c.7.4,1.5.8,2.3,1.3l2.4,1.5c3.4,2.2,7.2,4.5,11.1,6.9a117.34,117.34,0,0,0,13.8,7.4,62.14,62.14,0,0,0,8.3,3c1.4.5,3,.7,4.5,1.1,1.6.2,3.1.5,4.7.6a50.94,50.94,0,0,0,18.7-1.7,81,81,0,0,0,16.5-6.5c5.1-2.6,9.7-5.4,14.1-8,8.7-5.4,16.5-10.3,23.2-13.6a59.14,59.14,0,0,1,16.3-5.6,35.38,35.38,0,0,1,4.5-.5h3.2a14.16,14.16,0,0,1,1.9.1c.7,0,1.6.2,2.5.3,3.8.6,9.2,2.4,15.5,6.1s13.4,9.3,21.5,15.6a145.61,145.61,0,0,0,13.5,9.5,74,74,0,0,0,16.3,7.6,46.93,46.93,0,0,0,19.1,2.09,46.07,46.07,0,0,0,9.4-2.09,61.8,61.8,0,0,0,8.3-3.71,113.14,113.14,0,0,0,13.1-8.7c3.8-2.8,7.2-5.3,10.3-7.4.8-.5,1.5-1,2.3-1.4a6.73,6.73,0,0,0,1.1-.7c.4-.2.7-.4,1.1-.6.7-.4,1.4-.7,2.1-1.1s1.4-.6,2-.9,1.3-.6,1.9-.8l1.8-.6c.6-.2,1.2-.4,1.7-.59a9.4,9.4,0,0,1,1.6-.41c1-.3,1.9-.5,2.7-.7s1.5-.3,2-.4a10.5,10.5,0,0,1,1.3-.2h.5a85.36,85.36,0,0,1,31.1,1.6c8.1,1.8,13.4,3.8,14.8,1.9.7-.9.1-2.5-1.6-4.8a28.75,28.75,0,0,0-3.5-3.6,27.14,27.14,0,0,0-2.5-1.9,29,29,0,0,0-2.9-1.9,52.69,52.69,0,0,0-16.2-6.2,60.6,60.6,0,0,0-21.4-.7Z"/><path d="M505.68,222.47l.2-5.29v-5.6a67.31,67.31,0,0,0-1.2-11.61,38.2,38.2,0,0,0-4.4-12.19l-1.5-2.31.2-.19,1.6-1.5,1.5-1.5a80.27,80.27,0,0,0,9.1-12.4c2.5-4,4.8-7.8,7.3-11.1.6-.81,1.2-1.61,1.9-2.4l.9-1.1,1-1a31,31,0,0,1,4.3-3.7,105.3,105.3,0,0,1,11.2-6.61,90.77,90.77,0,0,0,12.9-8l1.6-1.3a18,18,0,0,0,1.6-1.39l1.6-1.5c.5-.5,1-1.11,1.5-1.61a31.22,31.22,0,0,0,5-7.39,37.52,37.52,0,0,0,3-8.31,40.27,40.27,0,0,0,1.1-8.3,71.71,71.71,0,0,0-1.1-15.6c-.9-5-2-9.6-3.3-14.4A109.72,109.72,0,0,0,550,48.47a76,76,0,0,0-9.5-12.4A58.87,58.87,0,0,0,528,26a65.3,65.3,0,0,0-30.2-8.9,68.83,68.83,0,0,0-35.5,8,79.44,79.44,0,0,0-7.8,5l-2.1,1.7c-1,.9-2,1.8-2.9,2.7l-1.5,1.4c-.5.5-.9,1-1.3,1.4l-2.6,2.9-2.6,2.9-.7.7h0v.1h0l.2.2.3.3,1.3,1.4,2.7,2.7.7.7.4.4.6.5,2.4,2.2,2.5,2.3.4.3.2.2h-.1l-1.2-1.1-.4-.3-3.2,4q-3.9,4.95-7.8,10.2A157.11,157.11,0,0,0,426,90.17a105.76,105.76,0,0,0-5.3,12.4,85.54,85.54,0,0,0-3.5,13.2,73.69,73.69,0,0,0-.2,27.7,55.89,55.89,0,0,0,4.3,13.7c.5,1.1,1.1,2.2,1.6,3.3a30.71,30.71,0,0,0,1.7,3.1c1.1,1.9,2.2,3.6,3,5.1a14.6,14.6,0,0,1,1.6,3.9,7.84,7.84,0,0,1,.2,1.4,5.28,5.28,0,0,1-.1,1.2,13.16,13.16,0,0,1-1.6,3.7l-3.1,5.3c-4.2,7.5-8.1,15.1-11.6,22.9s-6.9,15.5-9.9,23.4a297.12,297.12,0,0,0-9.5,28.5,211.94,211.94,0,0,0-5.2,24c-2.1,13.9-1.5,22.8.6,23.1s5.5-7.6,10.2-20.3c2.4-6.4,5.2-13.9,8.3-22.3s6.6-17.6,10.4-27.2c3-7.6,6.2-15.1,9.6-22.6s7.1-14.7,11-21.7l3.1-5.5a34,34,0,0,0,3.2-7.8,16.68,16.68,0,0,0,.5-5,24.23,24.23,0,0,0-.6-4.8,34.35,34.35,0,0,0-3-7.7q-1.8-3.15-3.3-5.7c-.5-.9-.9-1.6-1.3-2.4s-.8-1.5-1.2-2.3a39.41,39.41,0,0,1-3.1-10.1,55.59,55.59,0,0,1-.9-10.8,69.63,69.63,0,0,1,4-22,106.94,106.94,0,0,1,4.5-10.5,142.23,142.23,0,0,1,12.5-20.1c2.4-3.3,4.8-6.5,7.4-9.7l1.9-2.4,2.7-3.4,7.9-9.7-10.5-9.6,1.1,1,1.1-.8a43.83,43.83,0,0,1,5.8-3.7,53.29,53.29,0,0,1,27.2-6.1,49.53,49.53,0,0,1,22.8,6.6c6.7,4,12.3,10.1,16.6,17.2a93.44,93.44,0,0,1,9.9,23.6,117.83,117.83,0,0,1,2.9,12.8,57.11,57.11,0,0,1,.9,12.2,24.35,24.35,0,0,1-.7,5.5,18.19,18.19,0,0,1-1.7,4.8,23.13,23.13,0,0,1-6.7,7.8,96.21,96.21,0,0,1-10.8,6.6,110,110,0,0,0-12.8,7.6,39.19,39.19,0,0,0-3.2,2.5,41.21,41.21,0,0,0-3.1,2.8l-1.5,1.5-1.3,1.5c-.9,1-1.7,2.1-2.5,3.1-3.1,4.2-5.6,8.31-8,12.2a78.43,78.43,0,0,1-7.3,10.11c-.6.69-1.3,1.3-1.9,1.89l-.2.2h0l-.1.1-.2.2c-.2.11-.3.3-.5.4l-1.7.9-3.4,1.8a17.15,17.15,0,0,1-1.9.9l-2,.9-3.9,1.7-7.2,3.1,12.4,6.8,1.6.9c.3.1.5.3.8.4l.5.5,2.2,1.8.5.5.3.2h.1v.2l.2.4.5.7a23.17,23.17,0,0,1,2.5,7.3,63.79,63.79,0,0,1,.9,9v4.8l-.2,5.1c-1.3,41.9,1.1,75.9,5.5,76.1s9-33.7,10.3-75.6Z"/><path d="M621.28,221.77l6.6-34.2c1.6-8.5,3.3-17,4.5-23.4.6-3.2,1.1-5.8,1.5-7.7a13.14,13.14,0,0,0,.4-2.39,3.06,3.06,0,0,1,.1-.9,8.15,8.15,0,0,1,.1-1c0-.6.2-1.6.2-2.9a24.72,24.72,0,0,0-.4-5,16.59,16.59,0,0,0-3.6-7.9,13.36,13.36,0,0,0-3.9-3.1,16.56,16.56,0,0,0-5-1.8c-1.9-.3-4-.6-6.1-1-4-.6-8.3-1.3-12.6-2-17.1-2.7-34.3-5.4-34.4-5.4-10.9-1.7-20.2.4-20.9,4.8s7.6,9.2,18.4,10.9l34.4,5.4c4.3.7,8.6,1.3,12.6,2q2.85.45,5.4.9h0c0,.5.1,1.2.1,1.8a6.18,6.18,0,0,1-.1,1.5v1.2a11.18,11.18,0,0,1-.3,1.9c-.4,1.9-.9,4.5-1.5,7.7-1.2,6.4-2.9,14.9-4.5,23.4-3.3,17-6.6,34.1-6.6,34.2-2.1,10.8-.3,20.2,4,21s9.5-7.2,11.6-18Z"/><path d="M420.88,85.87s-2.8-.6-6.8-1.4-9.5-2-14.9-3.3c-10.8-2.5-21.6-5.1-21.6-5.1s-10.8-2.6-21.6-5.4c-5.4-1.39-10.8-2.8-14.8-3.89s-6.7-1.81-6.8-1.81c-6.8-1.8-13.3,0-14.4,4.31s3.4,9.19,10.3,11.1c0,0,2.8.7,6.8,1.8s9.5,2.5,14.9,3.9c10.9,2.8,21.8,5.5,21.8,5.5s10.9,2.7,21.9,5.2c5.5,1.3,11,2.5,15.2,3.3s7,1.39,7,1.39c7.1,1.4,13.5-1.1,14.2-5.39S427.88,87.28,421,86Z"/><path d="M178.88,27.57l-5.5-.8c-3.5-.5-8.5-1.2-14.5-2s-13.2-1.6-20.9-2.1c-1.1,0-2.3,0-3.5-.1h-16.6v.7c.3,3.9.5,7.7.8,11.7.2,2.8.4,5.6.7,8.4,1.3,16,2.8,31.9,4.1,43.8.6,6,1.2,10.9,1.6,14.4s.6,5.5.6,5.5.2,2,.7,5.5,1,8.4,1.8,14.4c1.5,11.9,3.8,27.8,6.3,43.6s5.4,31.7,7.8,43.5c1.2,5.9,2.2,10.9,3,14.3s1.2,5.5,1.2,5.5c.6,2.5,1.1,4.9,1.8,7.2s1.4,4.5,2.1,6.6a78.1,78.1,0,0,0,4.5,11c3.1,6.1,6,9.6,8.1,9s3-5,2.7-11.8c-.2-3.29-.5-7.29-1.1-11.6-.3-2.2-.7-4.4-1.1-6.7s-.9-4.7-1.4-7.2c0,0-.4-2-1.2-5.4s-1.7-8.3-2.9-14.1c-2.3-11.7-5.2-27.2-7.7-42.9s-4.7-31.3-6.2-43.1c-.8-5.9-1.4-10.8-1.8-14.3s-.6-5.4-.6-5.4-.2-2-.6-5.4-.9-8.4-1.6-14.3c-1.2-11.8-2.7-27.6-4-43.5l-.2-3v-.5h2.2c7.2.4,13.9,1.2,19.8,2s10.8,1.5,14.3,2l5.5.8c10.1,1.5,19.5,1.7,26.4.8a31.13,31.13,0,0,0,8.2-2.1q2.85-1.35,3-3c0-2.2-4-4.2-10.3-6a186.09,186.09,0,0,0-25-5.3Z"/><path d="M90.08,57.87s-1.5,2-4.1,5.3-6.3,8.2-10.7,14.11-9.3,12.8-14.5,20.3-10.5,15.6-15.7,23.8-10.1,16.5-14.7,24.4-8.6,15.3-12,21.8c-1.7,3.2-3.2,6.2-4.6,8.8s-2.5,4.9-3.4,6.8-1.7,3.4-2.2,4.4l-.8,1.6a17.75,17.75,0,0,0-.8,1.6c-.5,1-1.2,2.5-2.2,4.5a53.88,53.88,0,0,0-3.2,8.3,34.64,34.64,0,0,0-1.1,6.1,36.42,36.42,0,0,0,.2,6.6,58.64,58.64,0,0,0,1.2,6.3c.5,2.1,1,4,1.5,6,1,4,2.1,8.2,3.2,12.6,2.2,8.7,4.5,18,6.9,27.29,9.4,37.21,18.8,74.5,18.9,74.7,3.7,14.8,8.4,27.4,12.4,34.6l8.7-1.6c-1.8-4.5-3.6-7.1-5.2-6.9s-2.8,3.1-3.5,7.9l8.7-1.6c.1-8.2-1.8-21.5-5.5-36.3,0-.2-9.5-37.5-18.9-74.69-2.3-9.3-4.7-18.61-6.9-27.3-1.1-4.4-2.2-8.6-3.2-12.6a97.13,97.13,0,0,1-2.3-10.3,15.64,15.64,0,0,1-.1-3.7,10.47,10.47,0,0,1,.5-3,36.87,36.87,0,0,1,2.3-5.8c1.8-3.7,2.8-5.8,2.8-5.8a11.55,11.55,0,0,0,.7-1.5c.5-1,1.2-2.5,2.1-4.3s2.1-4.1,3.4-6.7,2.8-5.5,4.5-8.6c3.3-6.3,7.3-13.6,11.7-21.3s9.3-15.8,14.4-23.9,10.3-16,15.3-23.3,9.9-14.1,14.1-19.8,7.9-10.4,10.4-13.8,4.1-5.3,4.1-5.3a150.63,150.63,0,0,0,9.9-14.6,85.91,85.91,0,0,0,6.2-13.4,35,35,0,0,0,2-10c0-2.5-.6-4-1.6-4.4s-2.5.4-4.1,2a75.52,75.52,0,0,0-6.1,7.1c-2.4,3-5.2,6.6-8.4,10.5s-6.7,8.3-10.3,13.1Z"/><path d="M568.88,249.58v-2.71c0-1.7,0-4.1.1-6.9.2-5.7.6-13.29,1.4-20.79s2-15,3-20.6,1.9-9.3,1.9-9.3.3-1.5.9-4.11c.8-3.3,2-8.1,3.4-13.8.1-.2-.2-.2-.3-.2h-.6a4.25,4.25,0,0,0-1.1-.2,16.46,16.46,0,0,1-2.3-.3c-1.6-.2-3.2-.39-4.8-.6-3-.4-6.1-.8-9.3-1.3-3.6-.5-7.4-1.1-11.2-1.7-7.6-1.2-15.2-2.7-20.9-3.8-2.8-.6-5.2-1.1-6.9-1.4l-2.6-.6c-9.5-2.1-18.1-.6-19.1,3.7s5.9,9.7,15.8,11.8c0,0,1,.2,2.7.6s4.1.9,7.1,1.5c5.8,1.2,13.6,2.6,21.4,3.9,3.9.6,7.8,1.2,11.5,1.8a5,5,0,0,1,1.2.2c-.2.7-.3,1.2-.3,1.2s-.9,3.9-2,9.8-2.4,13.9-3.2,21.8-1.3,16-1.5,22.1c0,3-.1,5.5-.1,7.3v2.8a40.89,40.89,0,0,0,.7,7.2,28.19,28.19,0,0,0,1.9,5.8c1.6,3.2,3.7,5.1,5.9,5s4-2.3,5.3-5.5a26.73,26.73,0,0,0,1.5-5.6,36.86,36.86,0,0,0,.5-6.8Z"/><path d="M412.28,135.57s-2-.3-4.9-.9-6.9-1.2-10.7-2c-7.8-1.5-15.5-3.2-15.5-3.2s-1.9-.39-4.8-1.1-6.7-1.6-10.5-2.6-7.6-2.1-10.5-2.9-4.8-1.4-4.8-1.4c-4.8-1.39-9.7.7-11.1,4.9s1.6,8.8,6.5,10.3c0,0,2,.61,4.9,1.4s6.9,1.9,10.8,3,7.9,2,10.9,2.7,5,1.1,5,1.1,8,1.8,15.9,3.3c4,.8,8,1.5,11,2s5,.9,5,.9c5.1.9,9.7-2,10.4-6.3s-2.8-8.5-7.8-9.3Z"/><path d="M183.38,74H182c0-.1-.7-.19-.7-.19l-1.5-.2c-1-.11-2-.2-3-.4l-3.1-.5-12.4-2.2,3.1,24.4,1.6,13.8c1,9.2,2,18.5,3,27.7l3.4,33.8c.9,8.5,1.8,17,2.5,23.4s1.2,10.7,1.2,10.7c1.3,10.8,5.9,19,10.3,18.5s6.7-9.7,5.5-20.3c0,0-.5-4.3-1.2-10.6s-1.6-14.8-2.5-23.2l-3.4-33.8c-1-9.3-1.9-18.6-3-27.9l-2.1-17.3,2.4.2a32.52,32.52,0,0,0,14.6-1.8c3.7-1.5,5.8-3.7,5.6-5.8s-2.4-4-5.8-5.4a48.39,48.39,0,0,0-13-2.8Z"/><path d="M293.28,6.17s-.1,0-.4-.2-.6-.3-1.1-.5c-1-.4-2.4-1.09-4.3-1.69a65.2,65.2,0,0,0-15.9-3.5,63.43,63.43,0,0,0-10.8-.1A88.1,88.1,0,0,0,248.88,2a65.61,65.61,0,0,0-23.8,10.9,55.73,55.73,0,0,0-10,9.4,58.49,58.49,0,0,0-7.1,11.2,80.64,80.64,0,0,0-6.4,21.4c-1.1,6.2-1.5,11.2-1.9,14.8s-.5,5.5-.5,5.5-.7,8-1.2,20c-.2,6-.4,13-.5,20.4v25.1c-.1.3.2.3.5.4l.7.2,1.4.3,5.8,1.3c12.4,2.8,24.8,5.6,34.1,7.8-.2,1.6-.4,3.1-.5,4.4-.3,2.39-.6,4.39-.8,6.2-.5,3.39-.7,5.39-.8,5.5a119.25,119.25,0,0,0-1.2,25.8c.6,6.79,2.2,11.1,4.4,11.29s4.5-3.6,6.7-9.9a136.83,136.83,0,0,0,5.8-25s.3-2,.8-5.5c.2-1.69.5-3.89.8-6.3.2-1.2.3-2.5.5-3.89,0-.4.3-2.11.4-3.5s.3-2.81.4-4.31.3-3,.4-4.5a17.85,17.85,0,0,1,.2-2.3h0v-.3h-.3l-.6-.2-1.2-.3c-1.5-.4-3.1-.7-4.7-1.1s-3.2-.7-4.9-1.1c-3.6-.8-7.5-1.7-11.4-2.6-6.6-1.5-13.6-3.1-20.7-4.7v-12.5c0-7.4.2-14.2.5-20,.4-11.7,1.1-19.4,1.1-19.4s.1-1.9.5-5.3.8-8.2,1.7-13.6a64.54,64.54,0,0,1,5.1-17.2,45.33,45.33,0,0,1,5-8.1,37.32,37.32,0,0,1,7.1-6.6,50.64,50.64,0,0,1,18.2-8.2,64.29,64.29,0,0,1,9.2-1.4,56.53,56.53,0,0,1,8.3.1,51.83,51.83,0,0,1,12.1,2.6c1.4.5,2.5,1,3.3,1.3.4.2.7.3.9.4a.44.44,0,0,1,.3.1,82.69,82.69,0,0,1,18.8,11.9c4.6,3.6,7.6,6.6,9.7,5.8,1-.4,1.6-1.7,1.6-4a15.46,15.46,0,0,0-.6-3.9c-.2-.7-.5-1.5-.8-2.3-.2-.4-.3-.8-.5-1.2l-.6-1.2a37.83,37.83,0,0,0-7.9-10.6,50.1,50.1,0,0,0-13.3-9Z"/><path d="M310.18,62.57l1.7,9.4c.6,3.1,1.3,6.3,2,9.5a142.13,142.13,0,0,0,5.9,19.3,71.78,71.78,0,0,0,10.4,18.4l1.7,2.1c.6.7,1.2,1.3,1.8,2a18,18,0,0,0,1.9,2l1,.9.3.2h.1l-1.6.9c-1.4.8-2.7,1.5-4.1,2.2-2.7,1.5-5.5,2.9-8.3,4.2-1.4.7-2.8,1.3-4.2,2-1.6.7-2.2,1-5.7,2.4-2,.8-4.2,1.7-6.4,2.6l-6.5,2.5,5.9,12.1.7,1.5a3,3,0,0,0,.4.8l.2.6.6,1.5,1.2,2.9c.9,1.9,1.5,4,2.3,6l1.1,3c.4,1,.7,2.1,1,3.1,2.7,8.2,4.9,16.7,6.8,25.2l1.4,6.4,1.3,6.5c.4,2.2.8,4.3,1.2,6.5l1.1,6.5c1.4,8.7,2.6,17.5,3.5,26.2a120,120,0,0,0,4.3,22.61c1.8,5.79,3.9,9.29,6.1,9.2s4-3.8,5.1-9.9a86.48,86.48,0,0,0,.3-23.6c-1-9-2.2-18.1-3.7-27.1l-1.2-6.71c-.4-2.2-.8-4.5-1.2-6.7l-1.3-6.7-1.5-6.7c-2.1-8.9-4.3-17.8-7.2-26.7-.4-1.1-.7-2.2-1.1-3.3l-1.2-3.3c-.8-2.2-1.5-4.4-2.5-6.6l-2.1-5h.1L325,150c1.5-.7,3-1.4,4.6-2.1,3-1.4,6-3,9-4.5,1.5-.8,2.9-1.6,4.4-2.4l2.6-1.5,4.1-2.5c2.7-1.7,5.4-3.4,8-5.1l7.9-5.1-4.2-2.7-4.3-2.8-4.3-2.8c-.7-.5-1.5-.9-2.1-1.4s-1.3-1-1.9-1.5l-2.1-1.9c-.5-.4-.9-1-1.4-1.4s-.9-1-1.4-1.5l-1.3-1.6a64.06,64.06,0,0,1-8.2-14.5c-4.3-10.7-6.6-22.7-8.8-35.2-3.3-17.7-9.5-31.5-13.8-30.7s-5.1,15.8-1.8,33.8Z"/><path d="M668,383.37l-.8-.2,1.5-2.2,1.8-2.7c1.2-1.9,2.3-3.8,3.4-5.7a65.82,65.82,0,0,0,5.5-12.7,52.31,52.31,0,0,0,2.4-14.4v-1.9a12.75,12.75,0,0,0-.1-2l-.3-2-.4-2a35.8,35.8,0,0,0-2.5-7.4,39.09,39.09,0,0,0-9-12.3,33.77,33.77,0,0,0-13.8-7.9,16,16,0,0,0-2.1-.5,14.6,14.6,0,0,0-2.2-.3,16.2,16.2,0,0,0-2.2-.1h-2v-6.9c0-6.1.2-12.6-.3-19.3a64.19,64.19,0,0,0-4.8-20.7,45.82,45.82,0,0,0-5.6-9.8,37.81,37.81,0,0,0-8.7-8.2,36,36,0,0,0-11-4.9,44.09,44.09,0,0,0-11.3-1.3,52.45,52.45,0,0,0-10.7,1.11,44.8,44.8,0,0,0-5.1,1.2c-1.7.5-3.3.9-4.9,1.4a90.48,90.48,0,0,0-34.9,21c-1.5,1.5-3,3-4.4,4.5l-1.7,1.9h-.1v.2l-.7-.6a28.19,28.19,0,0,0-8.9-5,29,29,0,0,0-9.7-1.6,20.9,20.9,0,0,0-2.5.1,23.63,23.63,0,0,0-2.5.29,30.38,30.38,0,0,0-4.8,1.3,41.39,41.39,0,0,0-14.9,9.9,83.8,83.8,0,0,0-10,12.8,186.86,186.86,0,0,0-14.2,26.9c-2,4.7-3.8,9.4-5.4,14.2l-.5,1.4h-.7a6.64,6.64,0,0,0-1.5-.3h-3a25.35,25.35,0,0,0-10.6,3.3,24.32,24.32,0,0,0-8.2,7.5,13.5,13.5,0,0,0-1.5,2.6,13.35,13.35,0,0,0-.6,1.2l-.5,1.2a23.28,23.28,0,0,0-.8,2.4l-.6,2.4c-1.4,6.5-.9,12.4-.3,17.8l1,7.6v.9c.1,0,.2.7.2.7v4.3a9.72,9.72,0,0,1-1.1,4.2c-.2.4-.4.5-.4.6h-.5a8.4,8.4,0,0,1-1.8-.6c-1.6-.8-3.6-2.1-6.2-3.5a31.62,31.62,0,0,0-4.5-2.1c-.4-.2-.9-.3-1.4-.5s-.9-.3-1.5-.4a18.61,18.61,0,0,0-3.4-.4h-1.8a12.52,12.52,0,0,0-1.8.3,6.07,6.07,0,0,0-1.8.5,8.65,8.65,0,0,0-1.7.7,15.14,15.14,0,0,0-5.7,4.5,21.56,21.56,0,0,0-1.9,2.71c-.5.89-.9,1.79-1.3,2.6a27,27,0,0,0-1.5,4.9,43,43,0,0,0-.8,4.5c0,.7-.2,1.39-.2,2.1l-.2,2a17.12,17.12,0,0,1-1.1,5.29,9.66,9.66,0,0,1-.9,1.8c0,.1-.1.2-.2.3s-.1.2-.2.2h0a.2.2,0,0,1-.2.2h-.3a.65.65,0,0,1-.5-.2,10.41,10.41,0,0,1-1.2-.5c-.5-.3-1.1-.5-1.6-.8s-1.4-.5-2-.79a31.64,31.64,0,0,0-15.8-1.71,35,35,0,0,0-12.5,4.3,30,30,0,0,0-8.2,6.8,5.5,5.5,0,0,0-.7.9l-.6.9c-.4.6-.8,1.2-1.1,1.7a24.48,24.48,0,0,0-1.6,3.3c-.3,1-.6,2-.8,2.8a5.15,5.15,0,0,0-.1,2.1c0,1.2.4,1.8.9,2s1.2-.1,2.1-.8c.4-.3.8-.8,1.4-1.2s1.1-1,1.8-1.6,1.4-1.2,2.2-1.8a14.63,14.63,0,0,1,1.3-.9,4.23,4.23,0,0,1,.7-.5c.2-.1.5-.3.7-.4a25.16,25.16,0,0,1,7-3.2,28,28,0,0,1,8.8-1.4,20.58,20.58,0,0,1,9.1,2.1c.4.2.7.3,1.1.5s.9.5,1.4.8,1.2.6,1.9,1c.4.2.7.3,1.1.5a10.87,10.87,0,0,0,1.4.5,12.85,12.85,0,0,0,3.4.7c1.2.1,2.3,0,3.5,0a15,15,0,0,0,6.6-2.6,17.1,17.1,0,0,0,1.4-1.1,15.93,15.93,0,0,0,1.3-1.3,10.59,10.59,0,0,0,1-1.2l.9-1.2a25.18,25.18,0,0,0,2.5-4.9,33.13,33.13,0,0,0,2.1-9.6l.2-1.8a7.77,7.77,0,0,1,.2-1.6,23.42,23.42,0,0,1,.5-3,13.7,13.7,0,0,1,.7-2.4,5.94,5.94,0,0,1,.4-.8c.1-.2.2-.4.3-.4l.2-.2h.7a.76.76,0,0,1,.4.1c.6.3,1.4.6,2.4,1.1,1.9,1,4.1,2.5,7.1,4a18.61,18.61,0,0,0,2.5,1,20.16,20.16,0,0,0,2.9.8l1.6.3h3.6a11.27,11.27,0,0,0,1.8-.3,16.47,16.47,0,0,0,6.7-3.1,18,18,0,0,0,4.4-5.3,21.46,21.46,0,0,0,2.1-5.4,24.37,24.37,0,0,0,.6-2.6,21.3,21.3,0,0,0,.3-2.5,38.54,38.54,0,0,0,.2-4.8,19.27,19.27,0,0,0-.1-2.4v-1.2c-.1,0-.2-1-.2-1l-.9-7.5a40.71,40.71,0,0,1,0-12.6l.3-1.3c.1-.4.3-.8.4-1.2l.2-.6c0-.2.2-.4.2-.5a2.51,2.51,0,0,1,.4-.7,8,8,0,0,1,3-2.7,8.78,8.78,0,0,1,3.8-1.2h1.6a1.47,1.47,0,0,0,.2.4l.4.5.4.5.5.5,1,1.4,2.3,3.2,5.7,8.1,3.8-13.8,1-3.6.5-1.8.5-1.7,1-3.4.3-.8V333c.1,0,.2-.2.2-.2l.3-.8c1.5-4.4,3.1-8.8,4.9-13a165.2,165.2,0,0,1,13-24.6,64.09,64.09,0,0,1,7.9-10.2,25.06,25.06,0,0,1,9.1-6.2,12.3,12.3,0,0,1,2.2-.6c.4,0,.7-.1,1.1-.1h1.1a14.69,14.69,0,0,1,4.6.7,10.71,10.71,0,0,1,3.8,2.1l.2.2h0c0,.1,0,0,.2.3l.5.5.2.6.4,1.1.8,2.2.2.6a3.09,3.09,0,0,0,.2.8l.3,1.7,3,15.5,6.2-9.3c2.2-3.2,4.5-6.9,6.8-10.1l3.4-4.5.4-.6.2-.3h.1v-.2l.4-.5.9-1c1.1-1.3,2.4-2.5,3.6-3.8a75.32,75.32,0,0,1,28.8-17.3,61.89,61.89,0,0,1,8.1-2.1,43.18,43.18,0,0,1,7.9-.79,34,34,0,0,1,7.3.79,19.66,19.66,0,0,1,6.1,2.71,24.45,24.45,0,0,1,8.5,11,46.22,46.22,0,0,1,2.4,7.5,54.35,54.35,0,0,1,1.2,8.1c.4,5.7.3,11.7.3,18.1v9.5l.2,2.3c0,1.6.3,3,.4,4.6l.6,4.5,1.1,8.5,7.3-3.8,1.8-.9.9-.5c.1,0,.3-.2.4-.2h.4a11.11,11.11,0,0,1,1.6-.7l.8-.3c.3-.1.5,0,.8-.1h2a2.77,2.77,0,0,1,.9.1,2.92,2.92,0,0,1,.9.2,19.21,19.21,0,0,1,7.3,4.3,24.76,24.76,0,0,1,5.4,7.4,22.75,22.75,0,0,1,1.4,4.2l.2,1v1c.1,0,.2,1,.2,1v1.2c0,6.5-2.3,13.1-5.9,19.6-.9,1.6-1.9,3.2-2.9,4.8-.5.8-1,1.6-1.6,2.4l-.8,1.2-.4.6-.3.4-.5.6c-1.2,1.7-2.4,3.3-3.7,5l-3.8,4.9-7.7,9.9,13.7,2,3.4.5,3.4.6,3.4.6,2.5.5a88.44,88.44,0,0,1,13.1,3.7,39.64,39.64,0,0,1,10.2,5.6,7.63,7.63,0,0,0,1.1.8c.3.3.6.5.9.8a12.88,12.88,0,0,1,1.6,1.7,20.87,20.87,0,0,1,2.7,3.9A29.14,29.14,0,0,1,698,423a21.15,21.15,0,0,1-1.1,12.8c-1.2,3-2.6,4.8-2,5.8.3.5,1,.6,2.2.39a10.11,10.11,0,0,0,4.6-2.39,18.37,18.37,0,0,0,5-6.71,27.17,27.17,0,0,0,2.4-10.7,33.3,33.3,0,0,0-2.3-13.1,36.62,36.62,0,0,0-3.5-6.8,35.85,35.85,0,0,0-2.5-3.3c-.5-.5-1-1.1-1.4-1.5a18.41,18.41,0,0,1-1.4-1.39,46.7,46.7,0,0,0-13.8-8.8,90.11,90.11,0,0,0-15.8-4.9Z"/><path d="M176.08,371.67a37.32,37.32,0,0,0-3.6-10.7c-.8-1.5-1.6-2.9-2.4-4.3l-2-3.5a100.75,100.75,0,0,1-12.5-46v-4a21.75,21.75,0,0,1,.2-3.7,10.22,10.22,0,0,1,1.3-4.7,10,10,0,0,1,1-1.1,5.23,5.23,0,0,1,1.5-.7,13.66,13.66,0,0,1,2.3-.4c.9,0,1.8,0,2.9.1a23.23,23.23,0,0,1,6.1,1.7c2.2,1,4.6,2.3,7.2,3.7l1,.5.6.3,1,.5c1.3.6,2.6,1.3,3.9,1.8s2.6,1,3.9,1.5c.6.2,1.3.4,1.9.6a13.32,13.32,0,0,0,1.9.5l1.8.4,1.7.2,3.5.5,7.1,1-2.6-15.4-.5-3.8-.3-1.9v-.9c-.1,0-.2-.9-.2-.9-.1-1.2-.3-2.39-.3-3.6a93.68,93.68,0,0,1-.2-14,49.24,49.24,0,0,1,.8-6.7,47.18,47.18,0,0,1,1.5-6.5,44.4,44.4,0,0,1,2.2-6.1,61.9,61.9,0,0,1,3-5.7,40.53,40.53,0,0,1,8.3-9.5,41,41,0,0,1,5-3.5,31.26,31.26,0,0,1,5.4-2.3,26.23,26.23,0,0,1,11.5-.8,34.74,34.74,0,0,1,11.4,4.1c1.3.71,2.5,1.6,3.8,2.4l1.8,1.4c.6.5,1.1,1,1.7,1.5a43,43,0,0,1,6,6.8l.7.9.6,1c.4.7.8,1.3,1.2,1.9l1.1,2c.3.7.7,1.4,1,2.1a68.21,68.21,0,0,1,3.1,9,74,74,0,0,1,1.8,9.6c.2,1.6.4,3.3.5,4.9,0,.8.1,1.7.1,2.5v2.9a186.18,186.18,0,0,1-1.3,22.9l-2.5,24.1,15.8-19.9c1.3-1.6,2.6-3.3,3.9-4.8.6-.8,1.3-1.6,1.9-2.3l1.9-2.1,3.8-4.1,1.9-1.9,1-1,.8-.7c2.5-2.4,5-4.6,7.7-6.8l1-.8.9-.7a20.28,20.28,0,0,1,1.8-1.3,37.84,37.84,0,0,1,3.7-2.2,14.47,14.47,0,0,1,6.3-1.7,2.77,2.77,0,0,1,1.6.5c.2.1.4.3.7.5,0,.1.2.2.3.3a.76.76,0,0,0,.2.4,12.4,12.4,0,0,1,1.1,6.1,37.47,37.47,0,0,1-.4,4.5,20,20,0,0,1-.4,2.4l-.4,2.6a46.16,46.16,0,0,0-.7,6.5,53.11,53.11,0,0,0,.3,6.8,26.66,26.66,0,0,0,2,7.3,20.38,20.38,0,0,0,5.4,7.3,18.42,18.42,0,0,0,8.8,3.9,22.25,22.25,0,0,0,8.6-.6,38,38,0,0,0,6.3-2.3q2.7-1.2,4.8-2.1c.2,0,.3-.1.4-.1h.3c0-.1.7-.3.7-.3l1.5-.3h1.9v.3l-.3,1-.7,2.6-1.4,5.2-3.8,14.2c-1.8,6.7-3.5,13.2-5.2,19.6,4.6-1.5,9.1-3,13.6-4.4,2.2-.8,4.4-1.4,6.5-2,1-.3,2.1-.5,3.1-.8.5-.1,1-.3,1.5-.4h.7c0-.1.3-.2.3-.2a41,41,0,0,1,10.1-1.1,21.18,21.18,0,0,1,4.4.5,3.55,3.55,0,0,1,1,.2c.3,0,.6.2.9.2a11.5,11.5,0,0,1,1.7.6,21.13,21.13,0,0,1,5.9,4,18.22,18.22,0,0,1,5.2,9.21c.6,2.6.4,4.5,1.4,5,.4.2,1.1,0,1.9-.61l.6-.6a6,6,0,0,0,.6-.79c.2-.3.4-.71.6-1s.3-.8.5-1.3c1.5-3.7,1.3-10-2.4-16.1a25.94,25.94,0,0,0-8.1-8.5,27.61,27.61,0,0,0-2.9-1.71c-.5-.2-1.1-.5-1.6-.7s-1-.4-1.6-.6a36.53,36.53,0,0,0-6.7-1.7,47.66,47.66,0,0,0-14.1.2h-.4v-.2l.1-.1,1.8-6.7,1.4-5.2.7-2.6c.1-.5.3-1,.4-1.6s.3-1.5.4-2.4a18.76,18.76,0,0,0-.1-5.3,6.11,6.11,0,0,0-.3-1.3c-.2-.4-.3-.8-.5-1.2a13.44,13.44,0,0,0-1.2-2.4,15.47,15.47,0,0,0-8.4-6.2c-.9-.2-1.8-.5-2.6-.6l-1.1-.2h-3a13.4,13.4,0,0,0-2,.1,23.18,23.18,0,0,0-3.8.6c-.6.2-1.3.3-1.9.5l-.9.3a9.44,9.44,0,0,0-.9.3c-1.9.8-3.6,1.6-5.1,2.3a25.16,25.16,0,0,1-3.9,1.5,4.63,4.63,0,0,1-2.2.2,2.32,2.32,0,0,1-1-.4,3.54,3.54,0,0,1-1-1.4,17.28,17.28,0,0,1-.8-3.1,25.5,25.5,0,0,1-.2-4,31.25,31.25,0,0,1,.4-4.3,79.43,79.43,0,0,0,1.4-11.9,34.44,34.44,0,0,0-.5-7,22.09,22.09,0,0,0-2.9-7.7,21.41,21.41,0,0,0-1.3-1.9c-.5-.6-1-1.2-1.5-1.7a24.76,24.76,0,0,0-3.6-2.8,19.41,19.41,0,0,0-8.6-2.8,25.6,25.6,0,0,0-8,.8,32.27,32.27,0,0,0-6.6,2.5,43.43,43.43,0,0,0-5.6,3.3c-.9.6-1.7,1.2-2.6,1.9l-1.2,1-1.1.9c-2.9,2.4-5.8,4.9-8.5,7.6l-.2.2h0v-2.5c-.1-1-.2-1.9-.3-2.9-.1-1.9-.3-3.9-.5-5.8a91.23,91.23,0,0,0-2.2-11.6,67.08,67.08,0,0,0-4-11.4c-.4-.9-.8-1.8-1.3-2.8l-1.5-2.8c-.5-.9-1.1-1.8-1.6-2.7l-.8-1.3-.9-1.3a60.67,60.67,0,0,0-8.2-9.3c-.8-.7-1.5-1.4-2.3-2.1l-2.5-1.9c-.8-.6-1.7-1.2-2.6-1.8s-1.8-1.1-2.7-1.7a48.87,48.87,0,0,0-16.9-6.1,41.47,41.47,0,0,0-18.5,1.3,42.55,42.55,0,0,0-8.5,3.6,48.49,48.49,0,0,0-7.4,5.1,52.77,52.77,0,0,0-6.3,6.2A58.64,58.64,0,0,0,197,232a51.06,51.06,0,0,0-4.1,7.71,61.51,61.51,0,0,0-2.9,8.2,76.84,76.84,0,0,0-1.9,8.3,77.77,77.77,0,0,0-.9,8.29,110.53,110.53,0,0,0,.2,16.3l.4,4.1-1.3-.7c-2.5-1.3-5.2-2.8-8.2-4.2a40.94,40.94,0,0,0-10.5-3,28.86,28.86,0,0,0-12,.9,24,24,0,0,0-6.2,3.1,22.41,22.41,0,0,0-4.9,5.3,23.27,23.27,0,0,0-2.7,6.1,31.62,31.62,0,0,0-1,5.6,43.5,43.5,0,0,0-.2,5v4.7a113.44,113.44,0,0,0,6.9,36.4,116.92,116.92,0,0,0,7.7,16.9l2.3,4a26.85,26.85,0,0,1,1.8,3.3,27.32,27.32,0,0,1,1.4,3.1c.3,1,.6,1.9.7,2.5V375h.3v-.1h0a5.75,5.75,0,0,1-1.2.3c-1.4.2-3.7,0-6.4.1a24.22,24.22,0,0,0-4.5.4,18.88,18.88,0,0,0-5.1,1.6,19.1,19.1,0,0,0-7.6,6.3,24.22,24.22,0,0,0-3.7,7.6,27.63,27.63,0,0,0-1,7.5,19.83,19.83,0,0,0,.3,3.5,7.58,7.58,0,0,0,.3,1.6,8.33,8.33,0,0,0,.4,1.5,32.93,32.93,0,0,0,4.7,9.4,36.14,36.14,0,0,0,4.9,5.6c2.9,2.7,5,3.7,5.9,3.1s.5-2.9-.7-6.5c-.6-1.8-1.4-3.9-2.1-6.2a35.25,35.25,0,0,1-1.6-7.6v-2a13.66,13.66,0,0,1,.2-1.9,12.94,12.94,0,0,1,1.2-3.8,12,12,0,0,1,2.1-3.1,7,7,0,0,1,2.5-1.6c.2,0,.4-.1.6-.1h3.2c2,0,4.4.4,7.9.2a15.71,15.71,0,0,0,5.9-1.4,15.51,15.51,0,0,0,5.9-4.3,16.18,16.18,0,0,0,3.4-6.8,18.06,18.06,0,0,0,.2-6.5Z"/></g></svg>
